<svg width="380" height="140" viewBox="0 0 380 140" fill="none" xmlns="http://www.w3.org/2000/svg">
<mask id="mask0_1_1366" style="mask-type:alpha" maskUnits="userSpaceOnUse" x="0" y="0" width="380" height="140">
<rect width="379.856" height="140" rx="8" transform="matrix(1 0 0 -1 0 140)" fill="#D3EFFF"/>
<path d="M37.4552 18.9705L37.4551 18.9706C36.6303 19.712 35.8077 20.4556 34.9849 21.1994C34.6685 21.4854 34.352 21.7714 34.0353 22.0574C33.8277 22.2488 33.6201 22.4417 33.4121 22.6349C32.8788 23.1304 32.3424 23.6286 31.7944 24.1129C31.5059 24.3681 31.3931 24.6306 31.3947 24.9952L37.4552 18.9705ZM37.4552 18.9705C37.75 18.7052 37.8996 18.6418 38.0047 18.6418C38.1093 18.6417 38.2597 18.7046 38.5555 18.9732L37.4552 18.9705ZM38.5555 18.9732C39.3119 19.6602 40.0671 20.35 40.8227 21.04C41.9369 22.0576 43.0519 23.0758 44.1723 24.087L44.1724 24.0871C44.4608 24.3471 44.5691 24.6116 44.5648 24.9758C44.5517 26.0723 44.5538 27.1699 44.556 28.265C44.5569 28.7165 44.5577 29.1676 44.5575 29.618L38.5555 18.9732ZM31.3749 30.6055C31.3774 30.1085 31.3806 29.6112 31.3838 29.1137C31.3926 27.742 31.4015 26.3685 31.3947 24.9954L31.3749 30.6055Z" fill="#FFCF19" stroke="#FFCF19" stroke-width="0.559933"/>
<path d="M33.1925 21.4391C33.4215 21.6465 33.4937 22.1786 33.2674 22.3889C32.7189 22.8984 32.1709 23.4085 31.6092 23.9057C31.2602 24.2144 31.1131 24.5538 31.1151 24.9991V24.9991C31.1304 28.1023 28.5882 30.6111 25.485 30.6107C24.8684 30.6106 24.2518 30.6104 23.6352 30.61C22.804 30.6094 22.6885 30.5047 22.6872 29.7561C22.6846 28.168 22.6984 26.5806 22.6787 24.9937C22.6734 24.5454 22.8357 24.2102 23.18 23.8991C25.0424 22.216 26.8909 20.519 28.7467 18.8298C29.415 18.2221 29.6565 18.2203 30.3142 18.816C31.2767 19.688 32.2327 20.5653 33.1925 21.4391V21.4391Z" fill="#FFEEB1"/>
<path d="M56.5453 26.3477C56.4868 26.5524 56.5356 26.6889 56.6916 26.7572C57.2083 26.9717 57.8421 27.0789 58.5831 27.0789C59.2168 27.0789 59.7531 26.9034 60.2016 26.5427C60.6501 26.1819 60.9133 25.7042 60.9816 25.1192C61.0888 24.2124 60.5623 23.5397 59.4021 23.1107L59.0511 22.9839L58.8951 22.9254C58.7488 22.8572 58.7293 22.8474 58.6123 22.7792C58.4076 22.6427 58.2906 22.4672 58.3296 22.1649C58.3686 21.8237 58.5148 21.6189 58.7488 21.5312C58.9926 21.4239 59.1876 21.4142 59.5386 21.4142C59.8798 21.4142 60.2406 21.4824 60.6111 21.6092C60.7768 21.6677 60.8841 21.6092 60.9523 21.4239L61.1376 20.9267C61.1961 20.7317 61.1376 20.6049 60.9718 20.5562C60.4941 20.4099 60.0163 20.3319 59.5581 20.3319C58.8951 20.3319 58.3198 20.4879 57.8421 20.7999C57.3643 21.1119 57.0816 21.5702 57.0133 22.1649C56.8963 22.7987 57.1596 23.2472 57.4423 23.5299C57.6081 23.6957 58.0663 23.9199 58.2711 24.0077L58.7781 24.2027C59.4801 24.4757 59.7433 24.6804 59.6653 25.2167C59.5971 25.7334 59.2558 25.9869 58.6221 25.9869C58.1248 25.9869 57.5983 25.8699 57.0426 25.6262C56.8768 25.5579 56.7696 25.6067 56.7208 25.7919L56.5453 26.3477ZM63.654 20.3709C63.6637 20.1662 63.5955 20.0882 63.4005 20.0979L62.601 20.1467C62.406 20.1564 62.2987 20.2539 62.2695 20.4587L61.509 26.6694C61.4895 26.8644 61.5772 26.9619 61.7722 26.9619H62.562C62.7472 26.9619 62.8545 26.8644 62.874 26.6694L63.303 23.1692C63.693 23.0424 64.0342 22.9742 64.317 22.9742C64.785 22.9742 65.0287 23.1399 64.9507 23.7639L64.59 26.6694C64.5705 26.8644 64.6582 26.9619 64.8435 26.9619H65.6917C65.877 26.9619 65.9842 26.8644 66.0037 26.6694L66.3937 23.5202C66.5302 22.3989 66.072 21.8432 65.0092 21.8432C64.512 21.8432 63.9855 21.9407 63.4297 22.1259L63.654 20.3709ZM68.8366 22.2527C68.8561 22.0577 68.7683 21.9602 68.5831 21.9602H67.7933C67.6081 21.9602 67.5008 22.0577 67.4813 22.2527L66.9353 26.6694C66.9158 26.8644 67.0036 26.9619 67.1888 26.9619H67.9786C68.1638 26.9619 68.2711 26.8644 68.2906 26.6694L68.8366 22.2527ZM67.6471 20.8974C67.6178 21.0924 67.7056 21.1899 67.8908 21.1899H68.6806C68.8658 21.1899 68.9731 21.0924 69.0023 20.8974L69.1096 20.0394C69.1291 19.8444 69.0413 19.7469 68.8561 19.7469H68.0663C67.8811 19.7469 67.7738 19.8444 67.7543 20.0394L67.6471 20.8974ZM74.0469 20.2442C74.1054 20.0492 74.0372 19.9224 73.8324 19.8737C73.5107 19.8054 73.1987 19.7664 72.9062 19.7664C72.2724 19.7664 71.7167 19.9224 71.2584 20.2344C70.8002 20.5464 70.5369 21.0339 70.4492 21.6969L70.4102 21.9602H69.7569C69.5717 21.9602 69.4644 22.0577 69.4449 22.2527L69.3962 22.6037C69.3767 22.7987 69.4644 22.8962 69.6497 22.8962H70.2932L69.8252 26.6694C69.8057 26.8644 69.8934 26.9619 70.0787 26.9619H70.8684C71.0537 26.9619 71.1609 26.8644 71.1804 26.6694L71.6484 22.8962H72.8477C73.0427 22.8962 73.1499 22.7987 73.1792 22.6037L73.2377 22.2527C73.2669 22.0577 73.1792 21.9602 72.9939 21.9602H71.7557L71.7752 21.8237C71.8629 21.1704 72.2334 20.8389 72.8964 20.8389C73.1207 20.8389 73.3547 20.8584 73.5984 20.9072C73.7642 20.9364 73.8812 20.8584 73.9299 20.6732L74.0469 20.2442ZM73.9405 25.3532C73.8918 25.7139 73.882 25.8504 73.8918 26.1722C73.9015 26.3282 73.9308 26.4549 73.9795 26.5427C74.155 26.8547 74.4475 27.0887 75.2178 27.0887C75.5103 27.0887 75.793 27.0497 76.0563 26.9717C76.2318 26.9229 76.3195 26.7962 76.3098 26.5914L76.3 26.2112C76.2903 26.0259 76.2025 25.9382 76.0368 25.9674C75.871 25.9967 75.7248 26.0064 75.6175 26.0064C75.3055 26.0064 75.2373 25.8602 75.2763 25.4799L75.598 22.9059H76.6218C76.8168 22.9059 76.924 22.8084 76.9533 22.6134L77.0313 22.2527C77.0703 22.0577 76.9923 21.9602 76.807 21.9602H75.715L75.8418 21.0047C75.8515 20.7999 75.7833 20.7122 75.5785 20.7414L74.8083 20.8097C74.623 20.8194 74.5158 20.9169 74.4865 21.1217L74.3793 21.9699H73.7845C73.5993 21.9699 73.492 22.0674 73.4725 22.2624L73.4238 22.6134C73.4043 22.8084 73.492 22.9059 73.6773 22.9059H74.2428L73.9405 25.3532ZM78.4899 26.9619C78.2656 27.6347 77.7489 28.0734 77.0859 28.0734C76.9591 28.0734 76.8616 28.0637 76.7934 28.0539C76.6081 28.0247 76.5399 28.0734 76.4911 28.2782L76.3839 28.6682C76.3156 28.8632 76.4131 29.0094 76.5789 29.0484C76.7836 29.0874 76.9884 29.1069 77.1736 29.1069C77.7489 29.1069 78.2364 28.9217 78.6264 28.5414C79.0261 28.1612 79.4259 27.5079 79.8256 26.5719L81.7171 22.2429C81.7854 22.0577 81.7269 21.9602 81.5416 21.9602H80.8006C80.6154 21.9602 80.4886 22.0577 80.4204 22.2429L79.0456 25.8602L78.4509 22.2429C78.4119 22.0577 78.2949 21.9602 78.1096 21.9602H77.3784C77.1931 21.9602 77.1151 22.0577 77.1541 22.2429L78.0121 26.6792C78.0414 26.8644 78.1486 26.9619 78.3436 26.9619H78.4899Z" fill="#FFCF19"/>
</mask>
<g mask="url(#mask0_1_1366)">
<rect x="-24.1726" y="-12.043" width="517.986" height="257.419" rx="8" fill="#5FD068"/>
<path opacity="0.4" d="M147.124 107.407L377.19 305.577C393.335 319.732 417.553 319.732 433.698 305.577C449.843 291.422 449.843 270.19 433.698 256.035L242.586 85.059C239.031 81.8789 239.031 76.3146 242.586 73.1345L433.698 -97.8411C449.843 -111.996 449.843 -133.229 433.698 -147.384C425.625 -154.461 417.553 -158 405.444 -158C393.335 -158 385.263 -154.461 377.19 -147.384L147.124 50.7867C130.979 68.4805 130.979 89.713 147.124 107.407C147.124 103.868 147.124 103.868 147.124 107.407Z" fill="#4B8673"/>
</g>
</svg>
