<svg width="312" height="158" viewBox="0 0 312 158" fill="none" xmlns="http://www.w3.org/2000/svg">
<rect width="312" height="158" rx="19.1642" fill="url(#paint0_linear_60_2104)"/>
<rect x="0.69943" y="0.700496" width="33.9955" height="23.1679" rx="3.3" transform="matrix(1 0.000708361 -0.000814288 1 234.825 29.9995)" fill="url(#paint1_linear_60_2104)" stroke="#F9FFF6" stroke-width="1.4"/>
<path fill-rule="evenodd" clip-rule="evenodd" d="M246.534 45.9333C246.555 48.9844 249.702 52.624 251.871 53.8012C251.913 53.8211 251.95 53.8489 251.979 53.8826C252.008 53.9164 252.029 53.9553 252.041 53.997C252.053 54.0387 252.055 54.0822 252.047 54.1246C252.039 54.167 252.021 54.2075 251.995 54.2433C251.963 54.2916 251.919 54.3316 251.865 54.3595C251.811 54.3875 251.75 54.4023 251.689 54.4027C251.625 54.4028 251.564 54.3868 251.51 54.3565C249.196 53.1117 246.032 49.4752 245.832 46.2213L235.165 46.2138C235.077 46.2059 234.995 46.1683 234.935 46.1084C234.876 46.0485 234.843 45.9705 234.843 45.8897C234.843 45.8089 234.876 45.731 234.936 45.6712C234.995 45.6113 235.077 45.5739 235.165 45.5661L245.9 45.5737C246.574 43.4274 246.576 41.1522 245.906 39.0049L235.171 38.9973C235.077 38.9973 234.987 38.9632 234.921 38.9028C234.854 38.8423 234.817 38.7603 234.817 38.6748C234.817 38.5893 234.855 38.5073 234.921 38.447C234.988 38.3866 235.078 38.3527 235.171 38.3527L245.839 38.3603C246.044 35.0945 249.227 31.4747 251.53 30.2332C251.612 30.1897 251.711 30.1779 251.803 30.2004C251.895 30.2229 251.974 30.2779 252.021 30.3532C252.069 30.4285 252.082 30.5181 252.057 30.6021C252.033 30.6861 251.972 30.7578 251.89 30.8013C249.719 31.96 246.566 35.5982 246.539 38.6524C247.309 41.029 247.307 43.5578 246.534 45.9333ZM257.493 35.4095C256.285 33.2078 254.386 31.4783 253.136 30.8022C253.054 30.7585 252.994 30.6868 252.969 30.6028C252.944 30.5187 252.958 30.4292 253.005 30.3539C253.053 30.2786 253.132 30.2238 253.224 30.2014C253.317 30.179 253.415 30.1909 253.497 30.2345C255.134 31.1105 257.036 33.1193 258.126 35.103C258.153 35.141 258.169 35.1838 258.176 35.2283C258.182 35.2729 258.177 35.3181 258.162 35.3608C258.147 35.4035 258.121 35.4427 258.088 35.4756C258.054 35.5085 258.013 35.5342 257.968 35.5511C257.919 35.575 257.865 35.5876 257.809 35.5878C257.744 35.5878 257.679 35.5711 257.623 35.5396C257.567 35.5082 257.522 35.4631 257.493 35.4095ZM269.853 45.5907L259.098 45.5831C258.428 43.4358 258.43 41.1606 259.104 39.0143L269.859 39.0219C269.953 39.022 270.043 38.9881 270.109 38.9277C270.175 38.8673 270.213 38.7853 270.213 38.6999C270.213 38.6144 270.176 38.5324 270.109 38.4719C270.043 38.4114 269.953 38.3774 269.859 38.3773L258.831 38.3695C258.755 38.3702 258.68 38.3937 258.619 38.4363C258.559 38.4788 258.515 38.5383 258.494 38.6056C257.709 40.9984 257.707 43.5479 258.488 45.9418C258.462 48.9928 255.309 52.628 253.138 53.8021C253.095 53.8209 253.057 53.8477 253.026 53.8809C252.995 53.9141 252.973 53.9529 252.959 53.9946C252.946 54.0364 252.943 54.0802 252.95 54.1232C252.957 54.1662 252.974 54.2074 252.999 54.244C253.031 54.2924 253.076 54.3325 253.13 54.3604C253.183 54.3884 253.244 54.4034 253.306 54.4038C253.369 54.4041 253.431 54.3882 253.484 54.3579C255.787 53.1317 258.97 49.4843 259.175 46.2308L269.853 46.2383C269.941 46.2306 270.023 46.1931 270.083 46.1333C270.142 46.0735 270.176 45.9956 270.176 45.9147C270.176 45.8339 270.143 45.756 270.083 45.696C270.024 45.6361 269.942 45.5986 269.853 45.5907ZM252.16 31.9916C252.264 31.9283 252.387 31.8945 252.512 31.8946C252.68 31.8947 252.841 31.9556 252.96 32.0639C253.079 32.1722 253.145 32.3191 253.145 32.4721C253.145 32.5862 253.108 32.6978 253.038 32.7926C252.968 32.8875 252.869 32.9614 252.754 33.005C252.638 33.0486 252.51 33.0599 252.388 33.0376C252.265 33.0152 252.152 32.9602 252.063 32.8794C251.975 32.7986 251.915 32.6958 251.89 32.5838C251.866 32.4718 251.879 32.3558 251.927 32.2504C251.975 32.145 252.056 32.0549 252.16 31.9916Z" fill="#666666"/>
<defs>
<linearGradient id="paint0_linear_60_2104" x1="13.9381" y1="19" x2="306.941" y2="197.504" gradientUnits="userSpaceOnUse">
<stop offset="0.208333" stop-color="#66C8CE"/>
<stop offset="0.878935" stop-color="#50E3C2"/>
</linearGradient>
<linearGradient id="paint1_linear_60_2104" x1="-3.371" y1="-4.94507e-07" x2="35.8831" y2="27.9118" gradientUnits="userSpaceOnUse">
<stop stop-color="#FBC926"/>
<stop offset="0.212761" stop-color="#FFFBCC"/>
<stop offset="0.548384" stop-color="#C3922E" stop-opacity="0.8"/>
<stop offset="0.914316" stop-color="#EED688"/>
<stop offset="1" stop-color="#FFFBCC"/>
</linearGradient>
</defs>
</svg>
