<svg width="86" height="92" viewBox="0 0 86 92" fill="none" xmlns="http://www.w3.org/2000/svg">
<circle cx="40.5" cy="51.5" r="40.5" fill="#FFF4D0" fill-opacity="0.5"/>
<path d="M51.1478 84.3574L82.3617 30.6117C83.0685 29.3947 82.0662 27.8974 80.6717 28.0869L59.909 30.9091L64.8699 4.86451C65.0371 3.98648 63.9052 3.4834 63.3656 4.19584L32.6753 44.7068C31.7815 45.8868 32.7279 47.5645 34.2002 47.4095L57.0909 44.9999L49.5866 83.772C49.4056 84.7074 50.6693 85.1811 51.1478 84.3574Z" fill="#FFDC64"/>
<path d="M42.2728 41.8361C41.6995 41.8819 41.3188 41.2553 41.6236 40.7677L64.5697 4.05371C64.2283 3.78371 63.691 3.7663 63.3654 4.19591L32.6753 44.7069C31.7815 45.8869 32.7279 47.5646 34.2002 47.4095L57.0909 44.9999L49.5866 83.7721C49.4856 84.2951 49.8384 84.663 50.2506 84.7512L63.1097 44.0606C63.7124 42.1533 62.1917 40.2426 60.1977 40.4022L42.2728 41.8361Z" fill="#FFC850"/>
<path d="M85.1939 26.8878C84.9139 26.4693 84.418 26.2471 83.9209 26.3148L61.547 29.356L64.4248 14.2469C64.5611 13.5316 64.0917 12.8413 63.3765 12.7051C62.6628 12.5691 61.9711 13.0384 61.8347 13.7535L58.614 30.6624C58.5346 31.079 58.6606 31.5084 58.9524 31.8162C59.2441 32.124 59.6666 32.2725 60.0866 32.2154L81.6041 29.2906L51.4125 81.2764L56.7487 53.7053C56.887 52.9906 56.4198 52.2989 55.7049 52.1605C54.9902 52.0217 54.2983 52.4894 54.1601 53.2043L47.3421 88.4308C47.2199 89.0624 47.5713 89.6899 48.1735 89.9156C48.3252 89.9726 48.4817 89.9998 48.636 89.9998C49.0945 89.9998 49.5346 89.7597 49.7763 89.3435L85.2382 28.2832C85.4911 27.8478 85.4741 27.3064 85.1939 26.8878Z" fill="black"/>
<path d="M55.251 47.5685C55.1127 48.2832 55.5799 48.9749 56.2948 49.1132C56.3794 49.1296 56.4636 49.1375 56.5467 49.1375C57.1656 49.1375 57.7177 48.6998 57.8396 48.0694L58.3852 45.2506C58.4646 44.8403 58.3449 44.4169 58.0625 44.1089C57.78 43.8011 57.3701 43.6463 56.9529 43.689L33.2069 46.1886L63.1968 6.60166L62.9082 8.11724C62.772 8.8325 63.2413 9.52279 63.9566 9.65902C64.6708 9.7956 65.3621 9.32591 65.4983 8.61066L66.8404 1.56519C66.955 0.963663 66.6404 0.362493 66.081 0.113763C65.521 -0.134967 64.8643 0.0343096 64.4946 0.522453L29.2674 47.0221C28.9501 47.4412 28.912 48.0083 29.17 48.4662C29.4283 48.9239 29.9324 49.1841 30.4562 49.1294L55.4581 46.4976L55.251 47.5685Z" fill="black"/>
</svg>
