<svg width="102" height="81" viewBox="0 0 102 81" fill="none" xmlns="http://www.w3.org/2000/svg">
<circle cx="40.5" cy="40.5" r="40.5" fill="#FFF4D0" fill-opacity="0.5"/>
<path d="M63.4919 76.7746C83.5189 76.7746 99.754 60.5395 99.754 40.5125C99.754 20.4856 83.5189 4.25049 63.4919 4.25049C43.465 4.25049 27.2299 20.4856 27.2299 40.5125C27.2299 60.5395 43.465 76.7746 63.4919 76.7746Z" fill="#394D5C"/>
<path d="M63.4919 63.0198C75.9225 63.0198 85.9994 52.9429 85.9994 40.5124C85.9994 28.0818 75.9225 18.0049 63.4919 18.0049C51.0614 18.0049 40.9845 28.0818 40.9845 40.5124C40.9845 52.9429 51.0614 63.0198 63.4919 63.0198Z" fill="#AABECE"/>
<path d="M63.4919 71.7728V69.272C67.1669 69.2787 70.8087 68.5769 74.218 67.2051L75.1508 69.5258C71.4451 71.0173 67.4865 71.7802 63.4919 71.7728Z" fill="#7D8D9C"/>
<path d="M77.9092 68.2565L76.7538 66.0383C77.5491 65.6244 78.3381 65.163 79.0984 64.6729L80.4563 66.7711C79.6298 67.3075 78.7733 67.8076 77.9092 68.2565Z" fill="#7D8D9C"/>
<path d="M81.9506 27.6544C80.4278 25.4726 78.5318 23.5766 76.35 22.0538L67.2432 31.1618V18.3425C64.7627 17.8923 62.2213 17.8923 59.7407 18.3425V31.1618L50.634 22.0538C48.4521 23.5766 46.5562 25.4726 45.0333 27.6544L54.1414 36.7612H41.3221C40.8719 39.2417 40.8719 41.7831 41.3221 44.2636H54.1414L45.0333 53.3704C46.5562 55.5522 48.4521 57.4482 50.634 58.971L59.7407 49.863V62.6823C62.2213 63.1325 64.7627 63.1325 67.2432 62.6823V49.863L76.35 58.971C78.5318 57.4482 80.4278 55.5522 81.9506 53.3704L72.8426 44.2636H85.6618C86.112 41.7831 86.112 39.2417 85.6618 36.7612H72.8426L81.9506 27.6544Z" fill="#F4F4E6"/>
<path d="M62.2415 44.2637H64.7424V48.0149H62.2415V44.2637Z" fill="#AABECE"/>
<path d="M65.9927 16.7547C66.656 16.7547 67.2921 16.4912 67.7611 16.0222C68.2301 15.5532 68.4935 14.9171 68.4935 14.2538C68.4935 13.5906 68.757 12.9545 69.226 12.4855C69.695 12.0165 70.3311 11.753 70.9944 11.753C71.6576 11.753 72.2937 12.0165 72.7627 12.4855C73.2317 12.9545 73.4952 13.5906 73.4952 14.2538V23.0067C73.4952 23.67 73.7587 24.3061 74.2277 24.7751C74.6967 25.2441 75.3328 25.5076 75.996 25.5076C76.6593 25.5076 77.2954 25.2441 77.7644 24.7751C78.2334 24.3061 78.4969 23.67 78.4969 23.0067V15.5043C78.4969 14.841 78.7603 14.2049 79.2293 13.7359C79.6983 13.2669 80.3344 13.0034 80.9977 13.0034C81.661 13.0034 82.2971 13.2669 82.7661 13.7359C83.2351 14.2049 83.4985 14.841 83.4985 15.5043V29.2588C83.4985 29.9221 83.762 30.5582 84.231 31.0272C84.7 31.4962 85.3361 31.7597 85.9994 31.7597C86.6626 31.7597 87.2987 31.4962 87.7677 31.0272C88.2367 30.5582 88.5002 29.9221 88.5002 29.2588V14.2676C81.7673 7.8292 72.8077 4.24041 63.4919 4.25051V14.2538C63.4919 14.9171 63.7554 15.5532 64.2244 16.0222C64.6934 16.4912 65.3295 16.7547 65.9927 16.7547Z" fill="#87CEE9"/>
<path d="M40.9844 5.50098C41.6167 5.50167 42.2385 5.6626 42.7917 5.96874C43.3449 6.27487 43.8115 6.71622 44.148 7.25156C44.7067 6.92786 45.3403 6.75546 45.9861 6.75139C46.7505 6.74819 47.4976 6.97956 48.1264 7.41429C48.7552 7.84903 49.2356 8.46619 49.5026 9.18251C49.7697 9.89883 49.8105 10.6798 49.6197 11.4201C49.4289 12.1604 49.0156 12.8243 48.4356 13.3223C48.8766 13.5639 49.2345 13.9329 49.4626 14.381C49.6907 14.829 49.7784 15.3355 49.7143 15.8342C49.6503 16.3329 49.4374 16.8007 49.1034 17.1766C48.7694 17.5525 48.3299 17.8189 47.8422 17.9412C47.3545 18.0635 46.8412 18.036 46.3694 17.8622C45.8976 17.6883 45.4891 17.3763 45.1973 16.9669C44.9055 16.5574 44.7439 16.0695 44.7336 15.5668C44.7233 15.0641 44.8648 14.5699 45.1395 14.1489C44.1809 13.9262 43.3485 13.335 42.8225 12.5033C42.2637 12.827 41.6302 12.9994 40.9844 13.0035C39.9895 13.0035 39.0354 12.6083 38.3319 11.9048C37.6284 11.2013 37.2332 10.2471 37.2332 9.25222C37.2332 8.25733 37.6284 7.30319 38.3319 6.59969C39.0354 5.8962 39.9895 5.50098 40.9844 5.50098Z" fill="#87CEE9"/>
<path d="M96.0027 11.753C98.0745 11.753 99.754 10.0735 99.754 8.00174C99.754 5.92998 98.0745 4.25049 96.0027 4.25049C93.931 4.25049 92.2515 5.92998 92.2515 8.00174C92.2515 10.0735 93.931 11.753 96.0027 11.753Z" fill="#87CEE9"/>
<path d="M38.4836 29.2588C40.5553 29.2588 42.2348 27.5794 42.2348 25.5076C42.2348 23.4358 40.5553 21.7563 38.4836 21.7563C36.4118 21.7563 34.7323 23.4358 34.7323 25.5076C34.7323 27.5794 36.4118 29.2588 38.4836 29.2588Z" fill="#87CEE9"/>
<path d="M63.492 44.2637C65.5637 44.2637 67.2432 42.5842 67.2432 40.5125C67.2432 38.4407 65.5637 36.7612 63.492 36.7612C61.4202 36.7612 59.7407 38.4407 59.7407 40.5125C59.7407 42.5842 61.4202 44.2637 63.492 44.2637Z" fill="#394D5C"/>
<path d="M62.2415 33.0098H64.7424V36.761H62.2415V33.0098Z" fill="#AABECE"/>
<path d="M67.2432 39.2622H70.9944V41.763H67.2432V39.2622Z" fill="#AABECE"/>
<path d="M55.9895 39.2622H59.7407V41.763H55.9895V39.2622Z" fill="#AABECE"/>
<path d="M63.4919 69.2723V71.7732C67.4868 71.7793 71.4453 71.0151 75.1508 69.5224L74.218 67.2017C70.809 68.5748 67.1671 69.2779 63.4919 69.2723Z" fill="black"/>
<path d="M76.7538 66.0383L77.9092 68.2565C78.7733 67.8076 79.6298 67.3075 80.4563 66.7736L79.0984 64.6729C78.3381 65.1655 77.5491 65.6244 76.7538 66.0383Z" fill="black"/>
<path d="M64.7424 35.6882V33.0098H62.2415V35.6882C61.3822 35.9129 60.5982 36.3623 59.9701 36.9904C59.3421 37.6185 58.8926 38.4025 58.6679 39.2618H55.9895V41.7627H58.6679C58.8926 42.622 59.3421 43.406 59.9701 44.0341C60.5982 44.6622 61.3822 45.1117 62.2415 45.3364V48.0148H64.7424V45.3364C65.6017 45.1117 66.3857 44.6622 67.0138 44.0341C67.6419 43.406 68.0914 42.622 68.3161 41.7627H70.9945V39.2618H68.3161C68.0914 38.4025 67.6419 37.6185 67.0138 36.9904C66.3857 36.3623 65.6017 35.9129 64.7424 35.6882ZM63.492 43.0131C62.9973 43.0131 62.5138 42.8664 62.1026 42.5916C61.6913 42.3168 61.3708 41.9263 61.1815 41.4693C60.9922 41.0123 60.9427 40.5095 61.0392 40.0244C61.1357 39.5393 61.3739 39.0937 61.7236 38.7439C62.0734 38.3942 62.519 38.156 63.0041 38.0595C63.4892 37.963 63.992 38.0125 64.449 38.2018C64.906 38.3911 65.2965 38.7116 65.5713 39.1229C65.8461 39.5341 65.9928 40.0176 65.9928 40.5123C65.9928 41.1755 65.7293 41.8116 65.2603 42.2806C64.7913 42.7496 64.1552 43.0131 63.492 43.0131Z" fill="black"/>
<path d="M63.492 3.00007C58.3063 2.99027 53.1764 4.06976 48.4345 6.16862C47.6905 5.7365 46.8465 5.50632 45.9861 5.5009C45.4902 5.50093 44.9972 5.57726 44.5244 5.72722C44.0478 5.2389 43.4761 4.85355 42.8447 4.59501C42.2132 4.33647 41.5354 4.21024 40.8532 4.22412C40.1711 4.238 39.499 4.39171 38.8785 4.67572C38.2581 4.95974 37.7026 5.36803 37.2463 5.87534C36.79 6.38264 36.4426 6.97818 36.2257 7.6251C36.0087 8.27203 35.9268 8.95659 35.985 9.63643C36.0432 10.3163 36.2403 10.977 36.564 11.5776C36.8878 12.1782 37.3313 12.7061 37.8672 13.1284C31.4958 19.095 27.4055 27.0974 26.3013 35.7562C25.1971 44.4151 27.1481 53.1879 31.8181 60.5625C36.4881 67.9372 43.5845 73.4517 51.8841 76.1556C60.1837 78.8594 69.1666 78.5832 77.2845 75.3746C85.4023 72.166 92.1465 66.2259 96.3546 58.5783C100.563 50.9307 101.971 42.0546 100.337 33.48C98.703 24.9053 94.1288 17.1693 87.4029 11.6054C80.6771 6.04148 72.2209 2.99818 63.492 3.00007ZM81.728 51.3799L75.8623 45.5142H84.1301C83.6294 47.5793 82.8196 49.5568 81.728 51.3799ZM84.749 40.5125C84.7445 41.3486 84.6911 42.1836 84.589 43.0134H72.8438C72.5964 43.0132 72.3546 43.0864 72.1488 43.2237C71.943 43.361 71.7826 43.5562 71.6878 43.7847C71.593 44.0132 71.5682 44.2647 71.6164 44.5073C71.6646 44.75 71.7836 44.9729 71.9585 45.1478L80.295 53.4831C79.1853 54.918 77.8974 56.2059 76.4625 57.3156L68.1272 48.9791C67.9523 48.8042 67.7294 48.6851 67.4868 48.6369C67.2441 48.5888 66.9926 48.6136 66.7641 48.7084C66.5356 48.8032 66.3404 48.9636 66.2031 49.1694C66.0658 49.3751 65.9926 49.617 65.9928 49.8644V61.6095C64.3324 61.823 62.6515 61.823 60.9911 61.6095V49.8644C60.9913 49.617 60.9181 49.3751 60.7808 49.1694C60.6435 48.9636 60.4483 48.8032 60.2198 48.7084C59.9913 48.6136 59.7398 48.5888 59.4971 48.6369C59.2545 48.6851 59.0316 48.8042 58.8567 48.9791L50.5214 57.3156C49.0865 56.2059 47.7986 54.918 46.6889 53.4831L55.0254 45.1478C55.2003 44.9729 55.3194 44.75 55.3675 44.5073C55.4157 44.2647 55.3909 44.0132 55.2961 43.7847C55.2013 43.5562 55.0409 43.361 54.8351 43.2237C54.6293 43.0864 54.3875 43.0132 54.1401 43.0134H42.3949C42.1815 41.353 42.1815 39.6721 42.3949 38.0117H54.1401C54.3875 38.0119 54.6293 37.9387 54.8351 37.8014C55.0409 37.6641 55.2013 37.4688 55.2961 37.2403C55.3909 37.0118 55.4157 36.7604 55.3675 36.5177C55.3194 36.2751 55.2003 36.0522 55.0254 35.8772L46.6889 27.542C47.7986 26.1071 49.0865 24.8192 50.5214 23.7094L58.8567 32.046C59.0913 32.28 59.4093 32.4114 59.7407 32.4111C59.9051 32.4116 60.0679 32.3793 60.2196 32.3161C60.4481 32.2213 60.6433 32.061 60.7806 31.8554C60.9179 31.6497 60.9912 31.408 60.9911 31.1607V19.4155C62.6515 19.2063 64.3314 19.2021 65.9928 19.403V31.1569C65.9927 31.4042 66.066 31.646 66.2033 31.8516C66.3406 32.0573 66.5359 32.2176 66.7643 32.3123C66.916 32.3756 67.0788 32.4079 67.2432 32.4073C67.5746 32.4076 67.8926 32.2763 68.1272 32.0422L74.0042 26.1653C74.7208 26.6239 75.573 26.8229 76.4185 26.7291C77.2641 26.6354 78.052 26.2545 78.6507 25.6501C79.2372 26.2447 79.7879 26.8735 80.3 27.5332L71.961 35.871C71.7841 36.0455 71.6632 36.2687 71.6137 36.5121C71.5642 36.7556 71.5883 37.0083 71.683 37.238C71.7778 37.4677 71.9388 37.664 72.1455 37.8018C72.3523 37.9396 72.5954 38.0127 72.8438 38.0117H84.589C84.6919 38.8414 84.7454 39.6765 84.749 40.5125ZM74.3593 58.7486C72.5362 59.8402 70.5587 60.65 68.4936 61.1506V52.8829L74.3593 58.7486ZM58.4903 61.1506C56.4252 60.65 54.4477 59.8402 52.6246 58.7486L58.4903 52.8829V61.1506ZM45.2559 29.6402L51.1216 35.5109H42.8601C43.3588 33.4462 44.1665 31.4686 45.2559 29.6452V29.6402ZM42.8601 45.5142H51.1278L45.2621 51.3799C44.1706 49.5568 43.3607 47.5793 42.8601 45.5142ZM52.6308 22.2765C54.4523 21.1877 56.4277 20.38 58.4903 19.8807V28.1484L52.6308 22.2765ZM68.4936 19.8569C69.7828 20.178 71.0388 20.6201 72.2449 21.1774V23.0067C72.25 23.4076 72.3201 23.8049 72.4524 24.1834L68.4936 28.1422V19.8569ZM72.2449 18.4377C70.9495 17.9198 69.6104 17.5189 68.2435 17.2398C68.7083 16.8927 69.0858 16.4422 69.3462 15.9239C69.6067 15.4056 69.7429 14.8338 69.744 14.2538C69.744 13.9222 69.8758 13.6041 70.1103 13.3696C70.3448 13.1351 70.6628 13.0034 70.9944 13.0034C71.3261 13.0034 71.6441 13.1351 71.8786 13.3696C72.1131 13.6041 72.2449 13.9222 72.2449 14.2538V18.4377ZM84.1238 35.5109H75.8623L81.7393 29.6339C82.8237 31.4626 83.6275 33.4436 84.1238 35.5109ZM79.7211 23.2143C79.7211 23.1443 79.7424 23.078 79.7424 23.0067V15.5042C79.7424 15.1726 79.8741 14.8545 80.1086 14.62C80.3431 14.3855 80.6611 14.2538 80.9928 14.2538C81.3244 14.2538 81.6425 14.3855 81.8769 14.62C82.1114 14.8545 82.2432 15.1726 82.2432 15.5042V25.9802C81.4786 24.9931 80.6369 24.0683 79.7261 23.2143H79.7211ZM84.749 29.2588V15.5042C84.749 14.5093 84.3538 13.5552 83.6503 12.8517C82.9468 12.1482 81.9927 11.753 80.9978 11.753C80.0029 11.753 79.0487 12.1482 78.3452 12.8517C77.6418 13.5552 77.2465 14.5093 77.2465 15.5042V23.0067C77.2465 23.3383 77.1148 23.6564 76.8803 23.8909C76.6458 24.1254 76.3277 24.2571 75.9961 24.2571C75.6645 24.2571 75.3464 24.1254 75.1119 23.8909C74.8774 23.6564 74.7457 23.3383 74.7457 23.0067V14.2538C74.7457 13.2589 74.3505 12.3048 73.647 11.6013C72.9435 10.8978 71.9893 10.5026 70.9944 10.5026C69.9996 10.5026 69.0454 10.8978 68.3419 11.6013C67.6384 12.3048 67.2432 13.2589 67.2432 14.2538C67.2432 14.5854 67.1115 14.9035 66.877 15.138C66.6425 15.3725 66.3244 15.5042 65.9928 15.5042C65.6612 15.5042 65.3431 15.3725 65.1086 15.138C64.8741 14.9035 64.7424 14.5854 64.7424 14.2538V5.53216C73.1178 5.82487 81.1077 9.12382 87.2499 14.8252V29.2588C87.2499 29.5904 87.1181 29.9085 86.8836 30.143C86.6491 30.3775 86.3311 30.5092 85.9994 30.5092C85.6678 30.5092 85.3498 30.3775 85.1153 30.143C84.8808 29.9085 84.749 29.5904 84.749 29.2588ZM40.9845 6.75131C41.4059 6.75204 41.8202 6.85968 42.1887 7.06415C42.5572 7.26863 42.8678 7.56325 43.0914 7.92045C43.2631 8.19106 43.5322 8.3854 43.8431 8.46336C44.154 8.54131 44.4829 8.49691 44.762 8.33934C45.1338 8.1224 45.5557 8.00604 45.9861 8.00173C46.6494 8.00173 47.2855 8.26521 47.7545 8.7342C48.2235 9.2032 48.487 9.8393 48.487 10.5026C48.4858 10.86 48.4069 11.2128 48.2558 11.5367C48.1046 11.8606 47.8848 12.1477 47.6117 12.3782C47.4599 12.5103 47.3423 12.6771 47.2688 12.8644C47.1953 13.0516 47.1681 13.2539 47.1894 13.454C47.2108 13.654 47.2801 13.846 47.3915 14.0135C47.5029 14.1811 47.653 14.3193 47.8292 14.4164C48.0501 14.537 48.2294 14.7215 48.3437 14.9458C48.458 15.17 48.5019 15.4234 48.4699 15.673C48.4378 15.9227 48.3311 16.1568 48.1638 16.3448C47.9966 16.5328 47.7764 16.666 47.5323 16.7269C47.2881 16.7878 47.0312 16.7736 46.7952 16.6862C46.5592 16.5987 46.3551 16.4421 46.2096 16.2368C46.064 16.0315 45.9838 15.7871 45.9794 15.5355C45.975 15.2838 46.0467 15.0368 46.185 14.8265C46.2939 14.6579 46.3607 14.4656 46.3796 14.2659C46.3986 14.0661 46.3692 13.8646 46.2939 13.6786C46.2186 13.4926 46.0996 13.3274 45.947 13.197C45.7944 13.0667 45.6127 12.9749 45.4172 12.9296C44.7785 12.7823 44.2241 12.388 43.8754 11.833C43.7037 11.5624 43.4346 11.368 43.1238 11.2901C42.8129 11.2121 42.484 11.2565 42.2049 11.4141C41.8343 11.6309 41.4138 11.7476 40.9845 11.753C40.3212 11.753 39.6851 11.4895 39.2161 11.0205C38.7471 10.5515 38.4836 9.91541 38.4836 9.25214C38.4836 8.58888 38.7471 7.95279 39.2161 7.48379C39.6851 7.01479 40.3212 6.75131 40.9845 6.75131ZM63.492 75.5242C56.3715 75.5272 49.4195 73.3581 43.5641 69.3065C37.7086 65.255 33.2284 59.5137 30.7214 52.8491C28.2144 46.1846 27.8 38.9138 29.5335 32.0076C31.267 25.1014 35.0659 18.8882 40.423 14.1975C40.6089 14.2271 40.7964 14.2459 40.9845 14.2538C41.481 14.2539 41.9745 14.1771 42.4475 14.0262C42.7713 14.3541 43.1396 14.6348 43.5416 14.8603C43.5046 15.0729 43.4858 15.2884 43.4853 15.5042C43.4853 16.4991 43.8805 17.4533 44.584 18.1568C45.2875 18.8602 46.2417 19.2555 47.2366 19.2555C48.2314 19.2555 49.1856 18.8602 49.8891 18.1568C50.5926 17.4533 50.9878 16.4991 50.9878 15.5042C50.9871 14.667 50.7038 13.8546 50.1838 13.1985C50.6821 12.4419 50.9599 11.5616 50.986 10.6561C51.012 9.75055 50.7853 8.85567 50.3313 8.07175C54.1194 6.52584 58.1523 5.66633 62.2415 5.53341V14.2538C62.2443 15.1859 62.5963 16.0831 63.2281 16.7684C58.2111 16.8213 53.3395 18.4603 49.3108 21.4507C45.2821 24.4412 42.3029 28.6297 40.7999 33.4166C39.2969 38.2035 39.3471 43.3432 40.9433 48.0998C42.5395 52.8564 45.5999 56.986 49.6862 59.8972C53.7725 62.8085 58.6752 64.352 63.6923 64.3069C68.7094 64.2618 73.5836 62.6303 77.6169 59.6461C81.6503 56.6619 84.6359 52.478 86.1463 47.6935C87.6568 42.9089 87.6145 37.7691 86.0257 33.01C87.016 33.0031 87.9634 32.6048 88.6613 31.9021C89.3591 31.1993 89.7507 30.2492 89.7507 29.2588V17.3911C94.2074 22.4418 97.1113 28.6717 98.1137 35.3325C99.1161 41.9934 98.1743 48.802 95.4015 54.9406C92.6286 61.0793 88.1426 66.287 82.4823 69.9383C76.8219 73.5895 70.2278 75.5292 63.492 75.5242Z" fill="black"/>
<path d="M96.0028 3C95.0135 3 94.0465 3.29334 93.224 3.84293C92.4015 4.39252 91.7604 5.17367 91.3818 6.08761C91.0033 7.00154 90.9042 8.00721 91.0972 8.97744C91.2902 9.94767 91.7666 10.8389 92.4661 11.5384C93.1656 12.2379 94.0568 12.7142 95.027 12.9072C95.9972 13.1002 97.0029 13.0012 97.9168 12.6226C98.8308 12.244 99.6119 11.603 100.161 10.7804C100.711 9.95792 101.004 8.9909 101.004 8.00166C101.004 6.67514 100.477 5.40295 99.5395 4.46495C98.6015 3.52696 97.3293 3 96.0028 3ZM96.0028 10.5025C95.5081 10.5025 95.0246 10.3558 94.6134 10.081C94.2021 9.80623 93.8816 9.41566 93.6923 8.95869C93.503 8.50172 93.4535 7.99889 93.55 7.51377C93.6465 7.02866 93.8847 6.58306 94.2344 6.23331C94.5842 5.88356 95.0298 5.64538 95.5149 5.54888C96 5.45239 96.5028 5.50191 96.9598 5.6912C97.4168 5.88048 97.8073 6.20102 98.0821 6.61228C98.3569 7.02353 98.5036 7.50704 98.5036 8.00166C98.5036 8.66492 98.2401 9.30102 97.7711 9.77002C97.3021 10.239 96.666 10.5025 96.0028 10.5025Z" fill="black"/>
<path d="M43.4853 25.5075C43.4853 24.5183 43.192 23.5513 42.6424 22.7288C42.0928 21.9062 41.3116 21.2652 40.3977 20.8866C39.4838 20.508 38.4781 20.409 37.5079 20.602C36.5377 20.795 35.6464 21.2713 34.947 21.9708C34.2475 22.6703 33.7711 23.5615 33.5781 24.5317C33.3851 25.502 33.4842 26.5076 33.8627 27.4216C34.2413 28.3355 34.8824 29.1167 35.7049 29.6663C36.5274 30.2158 37.4944 30.5092 38.4837 30.5092C39.8102 30.5092 41.0824 29.9822 42.0204 29.0442C42.9584 28.1062 43.4853 26.834 43.4853 25.5075ZM38.4837 28.0084C37.989 28.0084 37.5055 27.8617 37.0943 27.5869C36.683 27.3121 36.3625 26.9215 36.1732 26.4646C35.9839 26.0076 35.9344 25.5048 36.0309 25.0196C36.1274 24.5345 36.3656 24.0889 36.7153 23.7392C37.0651 23.3894 37.5107 23.1512 37.9958 23.0547C38.4809 22.9583 38.9837 23.0078 39.4407 23.1971C39.8977 23.3863 40.2882 23.7069 40.563 24.1181C40.8378 24.5294 40.9845 25.0129 40.9845 25.5075C40.9845 26.1708 40.721 26.8069 40.252 27.2759C39.783 27.7449 39.1469 28.0084 38.4837 28.0084Z" fill="black"/>
</svg>
