<svg width="96" height="83" viewBox="0 0 96 83" fill="none" xmlns="http://www.w3.org/2000/svg">
<circle cx="40.5" cy="40.5" r="40.5" fill="#FFF4D0" fill-opacity="0.5"/>
<path d="M65.4664 26.2852V36.5351H43.5999V26.2852C43.3624 24.9939 42.1727 24.1017 40.8666 24.2352H21.7334C20.9786 24.2352 20.3667 23.6233 20.3667 22.8686V3.73533C20.3667 2.98054 20.9786 2.36867 21.7334 2.36867H40.8666C54.2561 2.19984 65.2581 12.8962 65.4664 26.2852Z" fill="#02A9F4"/>
<path d="M40.8666 2.36867H36.7666C50.1561 2.19984 61.1581 12.8962 61.3665 26.2852V36.5351H65.4664V26.2852C65.2581 12.8962 54.2561 2.19984 40.8666 2.36867Z" fill="#0377BC"/>
<path d="M88.6996 57.0352V78.9017H68.1997C54.8102 79.0706 43.8082 68.3742 43.5999 54.9852V42.002H65.4664V54.9852C65.7039 56.2765 66.8936 57.1687 68.1997 57.0352H88.6996Z" fill="#02A9F4"/>
<path d="M64.0998 57.0352H68.1997C66.8936 57.1687 65.704 56.2765 65.4664 54.9852V42.002H61.3665V54.9852C61.604 56.2765 62.7936 57.1687 64.0998 57.0352Z" fill="#0377BC"/>
<path d="M84.5996 57.0347H88.6996V78.9012H84.5996V57.0347Z" fill="#0377BC"/>
<path d="M94.1663 57.0351V78.9016C94.1663 80.4112 92.9426 81.6349 91.433 81.6349C89.9235 81.6349 88.6997 80.4112 88.6997 78.9016V57.0351C88.7042 55.5274 89.9253 54.3063 91.433 54.3018C92.9379 54.3129 94.1552 55.5302 94.1663 57.0351Z" fill="#9E9E9E"/>
<path d="M68.1999 39.268C68.1954 40.7757 66.9743 41.9968 65.4666 42.0013H43.6C42.0923 41.9968 40.8712 40.7757 40.8667 39.268C40.8779 37.7631 42.0951 36.5458 43.6 36.5347H65.4666C66.9743 36.5392 68.1954 37.7603 68.1999 39.268Z" fill="#9E9E9E"/>
<path d="M40.8665 1.0019H21.7333C20.2237 1.0019 19 2.22565 19 3.73522V22.8684C19 24.378 20.2237 25.6018 21.7333 25.6018H40.8665C41.4166 25.5424 41.9507 25.8094 42.2332 26.2851V35.4198C40.5958 35.9903 39.4986 37.5344 39.4986 39.2683C39.4986 41.0023 40.5958 42.5464 42.2332 43.1169V54.9849C42.4401 69.1293 54.0548 80.4384 68.1997 80.2681H87.5844C88.247 82.1494 90.1699 83.2784 92.1356 82.9405C94.1013 82.6025 95.5367 80.896 95.5329 78.9015V57.0349C95.5367 55.0404 94.1013 53.3339 92.1356 52.9959C90.1699 52.6579 88.247 53.787 87.5844 55.6683H68.1997C67.6497 55.7276 67.1156 55.4606 66.8331 54.9849V43.1169C68.4705 42.5464 69.5677 41.0023 69.5677 39.2683C69.5677 37.5344 68.4705 35.9903 66.8331 35.4198V26.2851C66.6261 12.1407 55.0114 0.831622 40.8665 1.0019ZM90.0663 57.0349C90.0663 56.2801 90.6781 55.6683 91.4329 55.6683C92.1877 55.6683 92.7996 56.2801 92.7996 57.0349V78.9015C92.7996 79.6562 92.1877 80.2681 91.4329 80.2681C90.6781 80.2681 90.0663 79.6562 90.0663 78.9015V57.0349ZM40.8665 22.8684H21.7333V3.73522H40.8665C53.5022 3.56404 63.8937 13.6499 64.0997 26.2851V35.1684H44.9665V26.2851C44.7351 24.2322 42.9275 22.7259 40.8665 22.8684ZM68.1997 58.4016H87.3329V77.5348H68.1997C55.564 77.706 45.1725 67.6201 44.9665 54.9849V43.3683H64.0997V54.9849C64.3312 57.0378 66.1387 58.5441 68.1997 58.4016ZM65.4664 40.635H43.5999C42.8451 40.635 42.2332 40.0231 42.2332 39.2683C42.2332 38.5136 42.8451 37.9017 43.5999 37.9017H65.4664C66.2212 37.9017 66.8331 38.5136 66.8331 39.2683C66.8331 40.0231 66.2212 40.635 65.4664 40.635Z" fill="black"/>
</svg>
