<svg width="105" height="89" viewBox="0 0 105 89" fill="none" xmlns="http://www.w3.org/2000/svg">
<circle cx="40.5" cy="48.5" r="40.5" fill="#FFF4D0" fill-opacity="0.5"/>
<path d="M95.569 50.4957H92.5086V39.7845C92.5086 36.1321 91.0577 32.6292 88.475 30.0466C85.8924 27.4639 82.3895 26.013 78.7371 26.013C75.0846 26.013 71.5818 27.4639 68.9991 30.0466C66.4165 32.6292 64.9655 36.1321 64.9655 39.7845V48.9656H61.9052V39.7845C61.9052 35.3204 63.6785 31.0392 66.8351 27.8826C69.9917 24.726 74.273 22.9526 78.7371 22.9526C83.2012 22.9526 87.4824 24.726 90.639 27.8826C93.7956 31.0392 95.569 35.3204 95.569 39.7845V50.4957Z" fill="#428DC5"/>
<path d="M55.7845 47.4355H98.6293V53.5562H55.7845V47.4355Z" fill="#6CBAE5"/>
<path d="M94.0388 82.6294H60.375L57.3147 53.5562H97.0991L94.0388 82.6294Z" fill="#4799CF"/>
<path d="M98.6293 47.0527V58.0604C98.6293 59.7072 97.3631 61.1265 95.7162 61.203C95.3025 61.2226 94.8891 61.1582 94.501 61.0135C94.1129 60.8688 93.7582 60.6468 93.4584 60.3611C93.1585 60.0754 92.9197 59.7318 92.7565 59.3511C92.5933 58.9705 92.5089 58.5606 92.5086 58.1465C92.5086 58.9581 92.1862 59.7365 91.6123 60.3104C91.0383 60.8844 90.2599 61.2068 89.4483 61.2068C88.6366 61.2068 87.8582 60.8844 87.2843 60.3104C86.7104 59.7365 86.3879 58.9581 86.3879 58.1465C86.3879 58.9581 86.0655 59.7365 85.4916 60.3104C84.9176 60.8844 84.1392 61.2068 83.3276 61.2068C82.5159 61.2068 81.7375 60.8844 81.1636 60.3104C80.5897 59.7365 80.2672 58.9581 80.2672 58.1465C80.268 58.6837 80.1268 59.2115 79.8579 59.6766C79.5882 60.1414 79.2019 60.5278 78.7371 60.7975C78.2865 61.0595 77.7759 61.2006 77.2547 61.2068C75.5447 61.2317 74.1465 59.7723 74.1465 58.0623V47.0527C74.1465 45.9367 74.5899 44.8664 75.379 44.0772C76.1682 43.2881 77.2385 42.8447 78.3545 42.8447H94.4213C95.5374 42.8447 96.6077 43.2881 97.3968 44.0772C98.186 44.8664 98.6293 45.9367 98.6293 47.0527Z" fill="#FD9226"/>
<path d="M60.375 82.6289H94.0388V88.7496H60.375V82.6289Z" fill="#6CBAE5"/>
<path d="M86.3879 70.3877H89.4483V78.0386H86.3879V70.3877Z" fill="#6CBAE5"/>
<path d="M86.3879 64.2671H89.4483V67.3274H86.3879V64.2671Z" fill="#6CBAE5"/>
<path d="M80.2672 58.1466C80.268 58.6838 80.1268 59.2116 79.8579 59.6767C79.5882 60.1415 79.2019 60.5279 78.7371 60.7976V52.0259H80.2672V58.1466Z" fill="#E08122"/>
<path d="M86.3879 58.1466C86.3882 58.6839 86.2469 59.2118 85.9783 59.6772C85.7096 60.1426 85.3232 60.529 84.8578 60.7976V52.0259H86.3879V58.1466Z" fill="#E08122"/>
<path d="M92.5086 58.1466C92.5089 58.6839 92.3676 59.2118 92.0989 59.6772C91.8303 60.1426 91.4439 60.529 90.9785 60.7976V52.0259H92.5086V58.1466Z" fill="#E08122"/>
<path d="M71.0862 88.7502H22.1207L25.181 76.5088H68.0259L71.0862 88.7502Z" fill="#FBB540"/>
<path d="M26.7112 70.3877H66.4957C66.9015 70.3877 67.2907 70.5489 67.5777 70.8359C67.8646 71.1228 68.0259 71.512 68.0259 71.9179V76.5084H25.181V71.9179C25.181 71.512 25.3422 71.1228 25.6292 70.8359C25.9162 70.5489 26.3054 70.3877 26.7112 70.3877Z" fill="#C17450"/>
<path d="M43.5431 76.5088H49.6638L51.194 88.7502H42.0129L43.5431 76.5088Z" fill="#EA9D2D"/>
<path d="M28.2414 88.7502L31.3017 76.5088H37.4224L34.3621 88.7502H28.2414Z" fill="#EA9D2D"/>
<path d="M46.6035 0C47.4151 0 48.1935 0.322428 48.7674 0.896354C49.3414 1.47028 49.6638 2.24869 49.6638 3.06034V70.3879H43.5431V3.06034C43.5431 2.24869 43.8655 1.47028 44.4395 0.896354C45.0134 0.322428 45.7918 0 46.6035 0Z" fill="#8F563B"/>
<path d="M31.3017 35.1938C30.8266 36.6191 30.0261 37.9142 28.9638 38.9766C27.9014 40.0389 26.6063 40.8394 25.181 41.3145C26.6063 41.7897 27.9014 42.5901 28.9638 43.6525C30.0261 44.7148 30.8266 46.0099 31.3017 47.4352C31.7769 46.0099 32.5773 44.7148 33.6397 43.6525C34.702 42.5901 35.9971 41.7897 37.4224 41.3145C35.9971 40.8394 34.702 40.0389 33.6397 38.9766C32.5773 37.9142 31.7769 36.6191 31.3017 35.1938Z" fill="#FBB540"/>
<path d="M98.6293 16.832C98.1541 18.2573 97.3537 19.5524 96.2913 20.6148C95.229 21.6771 93.9339 22.4776 92.5086 22.9527C93.9339 23.4279 95.229 24.2283 96.2913 25.2907C97.3537 26.353 98.1541 27.6481 98.6293 29.0734C99.1044 27.6481 99.9049 26.353 100.967 25.2907C102.03 24.2283 103.325 23.4279 104.75 22.9527C103.325 22.4776 102.03 21.6771 100.967 20.6148C99.9049 19.5524 99.1044 18.2573 98.6293 16.832Z" fill="#FBB540"/>
<path d="M22.1207 53.5562C21.6455 54.9814 20.8451 56.2765 19.7827 57.3389C18.7204 58.4012 17.4253 59.2017 16 59.6768C17.4253 60.152 18.7204 60.9524 19.7827 62.0148C20.8451 63.0772 21.6455 64.3722 22.1207 65.7975C22.5958 64.3722 23.3963 63.0772 24.4586 62.0148C25.521 60.9524 26.8161 60.152 28.2414 59.6768C26.8161 59.2017 25.521 58.4012 24.4586 57.3389C23.3963 56.2765 22.5958 54.9814 22.1207 53.5562Z" fill="#FBB540"/>
<path d="M55.7845 76.5088H61.9052L64.9655 88.7502H58.8448L55.7845 76.5088Z" fill="#EA9D2D"/>
</svg>
