<svg width="25" height="24" viewBox="0 0 25 24" fill="none" xmlns="http://www.w3.org/2000/svg">
<path fill-rule="evenodd" clip-rule="evenodd" d="M12.644 19.8117C14.1379 19.0552 19.4002 16.0333 19.4002 11C19.4002 7.13401 16.2002 4 12.2528 4C8.30545 4 5.10547 7.13401 5.10547 11C5.10547 16.0333 10.3678 19.0552 11.8617 19.8117C12.111 19.938 12.3946 19.938 12.644 19.8117ZM12.2528 14C13.9446 14 15.316 12.6569 15.316 11C15.316 9.34315 13.9446 8 12.2528 8C10.5611 8 9.18968 9.34315 9.18968 11C9.18968 12.6569 10.5611 14 12.2528 14Z" fill="white"/>
<path d="M12.644 19.8117L12.3729 19.2764L12.3729 19.2764L12.644 19.8117ZM11.8617 19.8117L11.5906 20.347L11.5906 20.347L11.8617 19.8117ZM18.8002 11C18.8002 13.2938 17.6026 15.1631 16.1614 16.5821C14.7214 17.9999 13.0935 18.9116 12.3729 19.2764L12.915 20.347C13.6884 19.9554 15.4386 18.9778 17.0033 17.4372C18.5667 15.8979 20.0002 13.7395 20.0002 11H18.8002ZM12.2528 4.6C15.8807 4.6 18.8002 7.4771 18.8002 11H20.0002C20.0002 6.79091 16.5197 3.4 12.2528 3.4V4.6ZM5.70547 11C5.70547 7.4771 8.62498 4.6 12.2528 4.6V3.4C7.98593 3.4 4.50547 6.79091 4.50547 11H5.70547ZM12.1327 19.2764C11.4122 18.9116 9.78425 17.9999 8.34432 16.5821C6.90307 15.1631 5.70547 13.2938 5.70547 11H4.50547C4.50547 13.7395 5.93901 15.8979 7.50239 17.4372C9.06709 18.9778 10.8173 19.9554 11.5906 20.347L12.1327 19.2764ZM12.3729 19.2764C12.294 19.3164 12.2117 19.3164 12.1327 19.2764L11.5906 20.347C12.0104 20.5595 12.4953 20.5595 12.915 20.347L12.3729 19.2764ZM14.716 11C14.716 12.3138 13.625 13.4 12.2528 13.4V14.6C14.2641 14.6 15.916 12.9999 15.916 11H14.716ZM12.2528 8.6C13.625 8.6 14.716 9.68624 14.716 11H15.916C15.916 9.00005 14.2641 7.4 12.2528 7.4V8.6ZM9.78968 11C9.78968 9.68624 10.8806 8.6 12.2528 8.6V7.4C10.2416 7.4 8.58968 9.00005 8.58968 11H9.78968ZM12.2528 13.4C10.8806 13.4 9.78968 12.3138 9.78968 11H8.58968C8.58968 12.9999 10.2416 14.6 12.2528 14.6V13.4Z" fill="white"/>
</svg>
