<svg width="390" height="291" viewBox="0 0 390 291" fill="none" xmlns="http://www.w3.org/2000/svg">
<path d="M141.007 278.077C188.969 278.077 258.484 320.776 336.607 250.944C414.729 181.113 387.732 153.568 374.923 56.4502C360.49 -52.9772 222.781 32.5254 120.643 20.7213C4.67855 7.31915 55.8008 105.074 14.2694 147.787C-27.262 190.501 33.8293 243.154 46.4227 250.944C56.4974 257.177 93.0452 278.077 141.007 278.077Z" fill="#EBEBEB" fill-opacity="0.25"/>
<path d="M277.501 236.068H76.5662C76.076 250.354 74.8624 261.746 74.699 263.193H278.318C277.688 253.646 277.455 244.542 277.501 236.068Z" fill="#98D8EA"/>
<path d="M289.358 136.295C289.358 140.964 286.277 164.051 283.803 181.443H283.453C281.534 188.048 280.221 194.815 279.532 201.659H75.7262C75.1525 194.406 73.5331 187.274 70.9181 180.485C67.3237 160.736 62.0255 135.875 62.0255 135.875C65.1764 132.373 155.526 134.684 179.753 134.428H181.434C202.836 134.031 289.358 136.295 289.358 136.295Z" fill="#C6E8EF"/>
<path d="M70.731 181.723C70.731 181.396 70.7309 181.069 70.5209 180.742C70.2222 179.571 69.816 178.43 69.3073 177.334C65.8763 169.841 58.3141 165.475 51.0787 167.366C48.0557 168.16 45.3903 169.953 43.5163 172.455C41.94 174.708 40.8588 177.27 40.3441 179.972C39.8294 182.673 39.8927 185.453 40.53 188.129C41.1673 190.804 42.3641 193.314 44.0414 195.493C45.7188 197.672 47.8388 199.471 50.2617 200.771C53.2815 202.308 56.756 202.698 60.0412 201.869C68.0235 199.791 72.6449 190.897 70.731 181.723Z" fill="#C6E8EF"/>
<path d="M51.0789 167.366C58.3144 165.475 65.8766 169.841 69.3076 177.334C69.9049 178.344 70.4426 179.389 70.918 180.462L67.4636 162.417C47.0643 158.425 43.5166 172.455 43.5166 172.455C45.3906 169.954 48.056 168.16 51.0789 167.366Z" fill="#98D8EA"/>
<path d="M75.726 201.682C76.0527 204.833 76.2861 208.078 76.4495 211.346H278.552C278.832 207.938 279.158 204.74 279.532 201.752C263.474 202.125 93.7912 201.729 75.726 201.682Z" fill="#9DD9E1"/>
<path d="M76.4497 211.346C76.8932 219.703 76.8231 228.317 76.4497 236.068H277.385C277.385 227.034 277.828 218.723 278.435 211.346H76.4497Z" fill="#98D8EA"/>
<path d="M76.4494 211.346C76.286 208.078 76.0526 204.833 75.7259 201.682C75.1853 194.438 73.6135 187.308 71.0578 180.509C71.0578 180.509 71.0578 180.976 71.0578 180.509C70.5824 179.436 70.0447 178.391 69.4474 177.381C69.9561 178.477 70.3623 179.618 70.6609 180.789C70.6609 181.116 70.801 181.443 70.8711 181.769C72.785 190.944 68.1636 199.838 60.1813 201.915C56.896 202.745 53.4215 202.355 50.4017 200.818C56.3306 221.117 58.5835 242.312 57.0538 263.404H74.7922V263.24C74.9556 261.77 76.1692 250.401 76.6594 236.114C76.8228 228.317 76.8929 219.704 76.4494 211.346Z" fill="#98D8EA"/>
<path d="M311.555 193.978C309.816 196.876 307.191 199.136 304.067 200.423C300.943 201.709 297.487 201.955 294.213 201.122C286.371 198.787 281.936 190.15 283.943 181.419H283.453C281.534 188.024 280.221 194.791 279.532 201.635C279.532 201.635 280.302 201.635 279.532 201.635C279.158 204.623 278.832 207.821 278.552 211.23C277.945 218.606 277.571 226.917 277.501 235.951C277.501 244.425 277.688 253.529 278.318 263.077H299.044C299.044 263.077 294.96 221.781 311.555 193.978Z" fill="#98D8EA"/>
<path d="M303.875 168.113C307.02 169.046 309.748 171.032 311.601 173.739C307.797 166.876 299.487 156.114 286.534 161.717L283.453 181.466C283.866 179.999 284.504 178.606 285.343 177.334C286.841 173.852 289.526 171.014 292.919 169.326C296.313 167.637 300.195 167.208 303.875 168.113Z" fill="#98D8EA"/>
<path d="M313.982 178.875C313.303 177.142 312.523 175.451 311.648 173.809C309.795 171.102 307.067 169.116 303.922 168.183C300.228 167.286 296.334 167.732 292.939 169.443C289.544 171.154 286.868 174.017 285.39 177.521C284.931 178.466 284.556 179.45 284.27 180.462C284.155 180.838 284.061 181.22 283.99 181.606C281.983 190.337 286.324 198.997 294.259 201.308C297.534 202.141 300.989 201.896 304.113 200.609C307.237 199.323 309.863 197.063 311.601 194.165C312.616 192.613 313.402 190.923 313.935 189.146C314.918 185.795 314.934 182.235 313.982 178.875Z" fill="#C6E8EF"/>
<path d="M181.9 201.682H181.27L179.753 134.451H180.383L181.9 201.682Z" fill="#3883C4"/>
<path d="M181.807 235.554C181.768 235.554 181.73 235.546 181.694 235.531C181.658 235.515 181.626 235.493 181.6 235.464C181.574 235.435 181.554 235.402 181.541 235.365C181.528 235.328 181.524 235.289 181.527 235.251L181.317 211.346C181.317 211.266 181.349 211.189 181.406 211.132C181.463 211.075 181.54 211.043 181.62 211.043C181.701 211.043 181.778 211.075 181.835 211.132C181.892 211.189 181.924 211.266 181.924 211.346L182.11 235.251C182.113 235.289 182.109 235.328 182.096 235.365C182.083 235.402 182.063 235.435 182.037 235.464C182.011 235.493 181.979 235.515 181.943 235.531C181.907 235.546 181.869 235.554 181.83 235.554H181.807Z" fill="#3883C4"/>
<path d="M277.408 236.091H76.6828C76.6024 236.091 76.5252 236.059 76.4683 236.002C76.4114 235.945 76.3794 235.868 76.3794 235.788C76.3793 235.749 76.3872 235.71 76.4028 235.675C76.4183 235.639 76.441 235.607 76.4696 235.581C76.4981 235.554 76.5317 235.534 76.5684 235.522C76.6052 235.509 76.6441 235.504 76.6828 235.507H277.408C277.447 235.504 277.486 235.509 277.522 235.522C277.559 235.534 277.593 235.554 277.621 235.581C277.65 235.607 277.672 235.639 277.688 235.675C277.703 235.71 277.711 235.749 277.711 235.788C277.711 235.868 277.679 235.945 277.622 236.002C277.566 236.059 277.488 236.091 277.408 236.091Z" fill="#3883C4"/>
<path d="M298.274 194.515C298.002 194.537 297.729 194.537 297.457 194.515C294.049 193.908 293.162 190.01 293.442 186.882C293.793 182.867 296.057 178.618 299.581 178.618C299.876 178.585 300.173 178.585 300.468 178.618C303.922 179.295 304.762 183.287 304.459 186.391C304.062 190.22 301.775 194.515 298.274 194.515ZM299.581 179.131C296.43 179.131 294.376 183.1 294.026 186.835C293.793 189.73 294.563 193.278 297.574 193.838C297.807 193.861 298.041 193.861 298.274 193.838C301.401 193.838 303.479 189.916 303.852 186.251C304.132 183.357 303.385 179.738 300.351 179.248C300.102 179.154 299.844 179.084 299.581 179.038V179.131Z" fill="#3883C4"/>
<path d="M55.6535 194.515C50.9855 194.515 48.8149 189.66 48.3014 185.504C47.7879 181.349 48.9082 176.61 52.0592 175.817C52.4536 175.704 52.8625 175.648 53.2729 175.653C57.5208 175.653 61.3952 181.279 61.9787 186.298C62.4922 190.477 60.7183 193.465 57.3107 194.305C56.769 194.443 56.2124 194.513 55.6535 194.515ZM53.3195 176.26C52.957 176.259 52.596 176.306 52.2459 176.4C49.4451 177.101 48.4647 181.466 48.9549 185.411C49.445 189.356 51.7557 193.908 55.7002 193.908C56.2034 193.9 56.7042 193.837 57.194 193.722C61.6753 192.624 61.652 188.212 61.4419 186.368C60.7884 181.699 57.2174 176.354 53.2729 176.354L53.3195 176.26Z" fill="#3883C4"/>
<path d="M74.7925 263.497C74.7122 263.481 74.6402 263.437 74.5891 263.373C74.5379 263.309 74.5108 263.229 74.5124 263.147C76.7553 241.229 76.9116 219.147 74.9792 197.2C74.5312 191.81 73.2639 186.52 71.2214 181.513C72.365 188.282 70.1945 197.854 63.1224 201.052C55.0001 204.81 50.3788 201.052 50.192 201.052C50.1622 201.025 50.1383 200.993 50.122 200.957C50.1056 200.921 50.0972 200.881 50.0972 200.842C50.0972 200.802 50.1056 200.763 50.122 200.726C50.1383 200.69 50.1622 200.658 50.192 200.631C50.2509 200.582 50.3252 200.555 50.402 200.555C50.4789 200.555 50.5533 200.582 50.6121 200.631C50.6121 200.631 55.14 204.18 62.9123 200.631C70.6846 197.083 72.2483 185.364 69.9143 178.945C69.8932 178.876 69.8956 178.802 69.9209 178.734C69.9462 178.667 69.9931 178.609 70.0544 178.571C70.1095 178.524 70.18 178.497 70.2528 178.497C70.3257 178.497 70.3961 178.524 70.4513 178.571C73.4717 184.36 75.2223 190.727 75.5861 197.247C77.5187 219.233 77.3624 241.353 75.1193 263.31C75.0977 263.376 75.0523 263.432 74.9919 263.467C74.9315 263.501 74.8604 263.512 74.7925 263.497Z" fill="#3883C4"/>
<path d="M278.318 263.497C278.243 263.492 278.172 263.462 278.116 263.411C278.061 263.36 278.025 263.291 278.015 263.217C276.821 246.898 276.821 230.513 278.015 214.194C280.069 189.66 283.336 182.47 283.476 182.19C283.507 182.121 283.562 182.066 283.631 182.036C283.7 182.006 283.778 182.002 283.85 182.026C283.918 182.052 283.974 182.102 284.008 182.167C284.042 182.231 284.053 182.305 284.036 182.376C283.617 184.995 283.672 187.668 284.2 190.267C284.668 192.802 285.861 195.148 287.634 197.021C289.406 198.893 291.683 200.212 294.189 200.818C307.236 204.53 312.208 192.181 312.418 191.667C312.444 191.594 312.498 191.534 312.567 191.499C312.637 191.465 312.717 191.458 312.791 191.481C312.866 191.512 312.927 191.57 312.961 191.643C312.996 191.716 313.002 191.8 312.978 191.877C312.978 192.017 307.61 205.277 294.026 201.402C283.896 198.53 282.939 189.333 283.103 184.781C280.637 194.415 279.113 204.265 278.551 214.194C277.352 230.513 277.352 246.898 278.551 263.217C278.555 263.257 278.55 263.297 278.538 263.335C278.525 263.373 278.505 263.408 278.479 263.439C278.453 263.469 278.422 263.494 278.386 263.512C278.35 263.53 278.311 263.541 278.271 263.544L278.318 263.497Z" fill="#3883C4"/>
<path d="M279.532 201.752H75.726C93.7912 201.729 263.474 202.125 279.532 201.752Z" fill="#938B8B"/>
<path d="M278.598 211.65H76.4494C76.369 211.65 76.2918 211.618 76.2349 211.561C76.178 211.504 76.146 211.427 76.146 211.346C76.146 211.266 76.178 211.189 76.2349 211.132C76.2918 211.075 76.369 211.043 76.4494 211.043H278.598C278.679 211.043 278.756 211.075 278.813 211.132C278.87 211.189 278.902 211.266 278.902 211.346C278.902 211.427 278.87 211.504 278.813 211.561C278.756 211.618 278.679 211.65 278.598 211.65Z" fill="#3883C4"/>
<path d="M350.369 268.399C350.369 271.691 341.5 274.469 329.363 275.402C326.609 275.612 323.715 275.729 320.68 275.729C304.342 275.729 290.922 272.438 290.922 268.423V265.084V264.174L291.785 216.902C291.785 220.801 304.693 223.905 320.61 223.905C325.75 223.933 330.885 223.566 335.968 222.808C344.067 221.548 349.435 219.353 349.435 216.832L350.276 263.147V264.011L350.369 268.399Z" fill="#F79738"/>
<path d="M350.369 268.399C350.369 271.691 341.5 274.469 329.363 275.402C333.681 259.972 335.338 238.542 336.038 222.878C344.137 221.618 349.506 219.423 349.506 216.902L350.346 263.217V264.081L350.369 268.399Z" fill="#E4822F"/>
<path d="M268.515 250.541L266.811 251.031C266.811 251.031 255.585 237.305 249.423 229.718C243.261 222.131 234.695 213.377 230.448 204.156C226.76 196.243 218.778 174.906 216.77 169.467C223.025 167.413 226.9 164.238 228.627 159.709C231.568 152.029 228.627 143.368 226.293 138.396C225.359 136.552 224.122 134.171 222.955 131.906C222.769 131.51 222.582 131.159 222.372 130.786L220.225 126.584C220.142 126.459 220.072 126.326 220.014 126.187C219.781 125.72 219.594 125.347 219.454 125.113C219.398 125.025 219.351 124.931 219.314 124.833C219.548 124.666 219.767 124.479 219.968 124.273L220.621 123.713C221.835 122.625 222.981 121.463 224.052 120.234L224.286 120.444C229.164 124.81 232.548 134.007 234.742 143.135C236.186 149.195 237.254 155.338 237.94 161.53C239.153 172.642 241.674 200.024 241.674 200.024C245.489 200.857 249.013 202.691 251.884 205.337C254.756 207.983 256.871 211.347 258.012 215.081C258.479 216.482 259.296 219.05 260.346 222.085C263.497 232.893 268.515 250.541 268.515 250.541Z" fill="#D64E27"/>
<path d="M199.615 209.806C205.964 217.976 204.283 227.897 201.016 238.589C197.981 248.674 192.333 264.454 192.333 264.454L190.442 264.057L188.995 263.754C188.995 263.754 186.965 222.925 186.661 210.506C186.311 199.394 185.308 176.797 185.238 171.802C187.583 172.258 189.968 172.477 192.356 172.455C194.48 172.455 197.024 172.455 200.199 172.222C201.879 172.222 203.466 171.988 204.867 171.825L199.615 209.806Z" fill="#D64E27"/>
<path d="M268.515 250.541L266.811 251.031C266.811 251.031 255.585 237.305 249.423 229.718C243.261 222.131 234.695 213.377 230.448 204.156C226.76 196.243 218.778 174.906 216.77 169.467C223.025 167.413 226.9 164.238 228.627 159.709C231.568 152.029 228.627 143.368 226.293 138.396C225.359 136.552 224.122 134.171 222.955 131.906C222.769 131.51 222.582 131.159 222.372 130.786L220.225 126.584C220.142 126.459 220.072 126.326 220.014 126.187C219.781 125.72 219.594 125.347 219.454 125.113C219.398 125.025 219.351 124.931 219.314 124.833C219.548 124.666 219.767 124.479 219.968 124.273L220.621 123.713C221.835 122.625 222.981 121.463 224.052 120.234L224.286 120.444C229.164 124.81 232.548 134.007 234.742 143.135C232.603 151.984 231.267 161.008 230.751 170.097C230.144 184.851 235.862 204.46 235.862 204.46C235.862 204.46 247.533 220.054 260.253 222.178C263.497 232.893 268.515 250.541 268.515 250.541Z" fill="#C23F27"/>
<path d="M204.89 171.825L199.615 209.806C205.964 217.976 204.283 227.897 201.016 238.589C197.982 248.673 192.333 264.454 192.333 264.454L190.443 264.057C192.613 256.891 198.215 238.379 199.055 228.177C200.105 215.455 196.721 212.42 196.721 212.42C196.324 203.363 193.594 181.676 192.287 172.455C194.411 172.455 196.955 172.455 200.129 172.222C201.786 172.105 203.373 171.988 204.89 171.825Z" fill="#C23F27"/>
<path d="M226.27 73.9198C225.014 75.5348 223.964 77.299 223.142 79.1723C222.722 80.1527 222.209 81.2499 221.695 82.2303C220.691 84.2146 219.734 85.8954 219.734 85.8954L217.797 84.6815L217.447 84.448L213.713 82.1136H213.549H213.409C209.581 86.4903 207.503 92.1263 207.574 97.9409C207.574 103.497 210.118 108.843 212.732 110.663C215.066 112.227 219.735 116.289 221.158 117.433C220.878 117.853 220.505 118.367 220.085 118.904C217.155 122.49 213.516 125.43 209.395 127.541C205.72 129.419 201.787 130.741 197.725 131.463H197.328C193.69 132.164 189.993 132.516 186.288 132.513C184.78 126.523 183.665 120.441 182.951 114.305C182.764 112.204 182.554 110.056 182.344 108.072C181.9 104.057 181.48 100.742 181.363 99.8785C181.358 99.8085 181.358 99.7383 181.363 99.6684C180.733 99.4583 180.15 99.2715 179.59 99.0381C177.806 98.452 176.128 97.5852 174.618 96.4702C173.825 95.9002 173.166 95.1643 172.686 94.3137C172.207 93.4631 171.918 92.5181 171.841 91.5446C171.631 89.0235 175.458 82.207 176.719 78.5186C177.699 75.6707 178.913 69.6946 179.706 66.5665C179.851 65.9193 180.055 65.2864 180.313 64.6756C181.002 63.8131 181.785 63.0301 182.647 62.3412L183.277 61.7809C184.101 61.0503 184.881 60.2708 185.611 59.4465C185.635 59.6247 185.635 59.8053 185.611 59.9835C185.751 61.1273 185.938 64.3021 186.335 66.9867C186.385 68.3095 186.796 69.5933 187.525 70.6984C187.57 70.7144 187.62 70.7144 187.665 70.6984C187.705 70.7188 187.749 70.7295 187.793 70.7295C187.838 70.7295 187.882 70.7188 187.922 70.6984H188.039V70.5817C188.7 69.2017 189.209 67.7535 189.556 66.263C189.742 65.6561 189.952 65.0258 190.163 64.4422C191.26 61.4074 193.477 57.4389 193.383 56.762H194.621C196.464 56.762 199.989 56.9254 202.509 57.1121C203.291 57.1579 204.07 57.2437 204.843 57.3689C207.177 57.8125 209.511 59.7033 213.946 63.2049C216.817 65.5393 220.948 69.3678 223.586 71.8189C223.685 71.9063 223.778 71.9999 223.866 72.099L226.27 73.9198Z" fill="#F79738"/>
<path d="M185.751 59.9367C185.891 61.0805 186.078 64.2553 186.475 66.9399C184.23 67.4393 181.892 67.3264 179.706 66.6131C179.851 65.9659 180.055 65.3331 180.313 64.7222C181.002 63.8597 181.785 63.0768 182.647 62.3878L183.277 61.8276C184.101 61.097 184.881 60.3174 185.611 59.4932C185.675 59.635 185.722 59.7839 185.751 59.9367Z" fill="#E18726"/>
<path d="M202.766 56.9253C199.359 61.1059 194.882 64.2845 189.812 66.1229C189.999 65.5159 190.209 64.8856 190.419 64.302C191.516 61.2673 193.733 57.2988 193.64 56.6218H194.877C196.721 56.6218 200.245 56.7852 202.766 56.9253Z" fill="#E18726"/>
<path d="M212.732 110.687C215.066 112.251 219.735 116.313 221.158 117.456C220.878 117.877 220.505 118.39 220.085 118.927C216.233 116.219 207.878 109.986 206.081 106.041C204.759 102.777 204.434 99.1949 205.147 95.7465C202.497 97.0923 199.433 97.3762 196.581 96.5402C204.867 95.3263 208.251 92.0347 208.251 85.5451C208.528 82.407 208.031 79.2489 206.804 76.3475C206.804 76.3475 205.077 74.4333 209.138 75.4371C213.585 77.0396 217.751 79.3321 221.485 82.2302C220.481 84.2145 219.524 85.8953 219.524 85.8953L217.587 84.6814L217.237 84.4479L213.503 82.1135H213.339H213.199C209.371 86.4902 207.293 92.1262 207.364 97.9408C207.574 103.473 210.165 108.866 212.732 110.687Z" fill="#E18726"/>
<path d="M190.209 44.8564C190.289 43.5192 190.289 42.1784 190.209 40.8412C196.441 35.7522 192.17 29.1692 190.209 29.7061C188.249 30.243 188.319 33.768 188.319 33.768L185.635 29.0992C184.942 27.9641 183.926 27.0618 182.717 26.508C180.855 25.7265 178.842 25.3672 176.824 25.456C174.807 25.5448 172.834 26.0794 171.047 27.0215C167.102 29.3559 162.738 34.0248 162.108 37.2229C160.653 36.7524 159.348 35.9071 158.324 34.7719C157.299 33.6368 156.592 32.2519 156.273 30.7566C155.129 26.0878 159.073 17.2637 164.488 14.4157C169.903 11.5678 177.442 14.4157 177.769 14.4157C177.582 14.2056 174.921 11.1943 177.769 11.1009C180.616 11.0075 187.525 15.2328 189.229 16.2833L189.602 16.4934C189.602 16.4934 196.604 22.9597 198.075 29.6127C199.545 36.2658 197.818 45.8369 190.209 44.8564Z" fill="#B75349"/>
<path d="M190.209 44.8564C190.289 43.5192 190.289 42.1785 190.209 40.8413C196.441 35.7522 192.17 29.1692 190.209 29.7061C188.249 30.2431 188.319 33.768 188.319 33.768L185.634 29.0992C184.942 27.9641 183.926 27.0618 182.717 26.508C191.586 25.6676 190.489 22.166 189.252 16.4L189.626 16.6101C189.626 16.6101 196.628 23.0764 198.098 29.7295C199.569 36.3825 197.818 45.8369 190.209 44.8564Z" fill="#A03E37"/>
<path d="M217.307 32.204C217.187 34.5659 216.414 36.8482 215.075 38.7974C213.736 40.7466 211.883 42.2864 209.721 43.2457C209.721 43.2457 211.379 38.5769 210.235 36.2425C209.348 34.375 208.788 34.5851 205.567 35.0986C202.346 35.6122 200.362 34.5851 199.638 30.4298C198.915 26.2746 197.655 19.2947 192.403 17.8007C193.29 15.1628 192.403 12.7584 190.653 12.5716C190.928 10.9967 191.49 9.4855 192.31 8.1129C193.041 6.82496 194.11 5.76141 195.402 5.03727C196.693 4.31313 198.158 3.95594 199.638 4.00434C206.407 4.00434 208.484 8.4864 209.511 13.482C209.95 17.2526 209.436 21.0729 208.018 24.5938C208.344 23.9319 208.891 23.4044 209.564 23.1019C210.237 22.7995 210.994 22.7409 211.705 22.9364C213.183 23.4735 214.481 24.4146 215.45 25.6526C216.42 26.8906 217.023 28.3759 217.19 29.9396C217.317 30.6873 217.356 31.4472 217.307 32.204Z" fill="#B75349"/>
<path d="M217.307 32.204C217.187 34.5659 216.414 36.8482 215.075 38.7975C213.736 40.7467 211.883 42.2864 209.721 43.2458C209.721 43.2458 211.379 38.577 210.235 36.2425C209.348 34.375 208.788 34.5851 205.567 35.0987C202.346 35.6123 200.362 34.5851 199.638 30.4299C198.915 26.2746 197.655 19.2948 192.403 17.8007C193.29 15.1629 192.403 12.7584 190.653 12.5717C190.928 10.9967 191.49 9.48556 192.31 8.11296C198.752 6.78235 204.237 7.66942 206.08 13.2253C208.274 19.8083 205.473 26.2746 206.617 26.4847C207.761 26.6948 214.74 22.633 217.19 30.0564C217.308 30.7657 217.348 31.486 217.307 32.204Z" fill="#A03E37"/>
<path d="M190.186 40.8413C190.186 40.8413 190.186 41.6816 190.186 42.9889C190.186 43.5492 190.186 44.1795 190.186 44.8564C190.178 48.1818 189.188 51.4306 187.338 54.1941C186.617 55.0273 185.837 55.8074 185.004 56.5285C183.592 57.8974 181.856 58.887 179.959 59.4053C178.061 59.9236 176.063 59.9538 174.151 59.4932C168.223 58.466 165.539 53.8906 164.395 47.8211C163.251 41.7517 162.061 37.2229 162.061 37.2229C162.691 34.0948 167.056 29.3093 171 27.0216C172.676 26.1551 174.509 25.636 176.39 25.4956C178.271 25.3552 180.161 25.5964 181.947 26.2045C183.446 26.7309 184.722 27.7517 185.565 29.0992L188.249 33.768C188.249 33.768 188.249 30.2431 190.139 29.7061C192.03 29.1692 196.418 35.7756 190.186 40.8413Z" fill="#F1B5AB"/>
<path d="M190.186 40.8412C190.186 40.8412 190.186 41.6816 190.186 42.9889C190.186 43.5491 190.186 44.1794 190.186 44.8564C190.179 48.1817 189.188 51.4306 187.338 54.194C189.339 44.526 187.444 34.459 182.064 26.1812C183.563 26.7075 184.839 27.7283 185.681 29.0758L188.365 33.7446C188.365 33.7446 188.365 30.2197 190.256 29.6828C192.147 29.1458 196.418 35.7756 190.186 40.8412Z" fill="#F5948D"/>
<path d="M190.746 12.4315C188.412 12.2915 188.972 16.33 188.972 16.33C190.094 17.1027 191.087 18.0482 191.913 19.1313C192.175 18.6618 192.394 18.1696 192.567 17.6606C193.383 14.976 192.59 12.5716 190.746 12.4315Z" fill="#5F1D16"/>
<path d="M175.505 37.1063C175.505 37.1063 174.991 34.305 177.325 33.9781C179.318 34.0065 181.271 34.545 182.997 35.5422C182.997 35.5422 176.765 35.3321 175.505 37.1063Z" fill="#B75349"/>
<path d="M168.736 38.4134C168.228 38.0652 167.626 37.8788 167.009 37.8788C166.393 37.8788 165.791 38.0652 165.282 38.4134C164.734 38.8365 164.299 39.3878 164.014 40.0187C163.729 40.6496 163.603 41.3409 163.648 42.0318C164.528 41.249 165.482 40.5532 166.496 39.9541C167.3 39.5297 168.052 39.0126 168.736 38.4134Z" fill="#B75349"/>
<path d="M219.221 124.74C220.911 123.324 222.473 121.761 223.889 120.071L219.221 124.74Z" fill="#5F1D16"/>
<path d="M226.27 138.49C225.336 136.645 224.099 134.264 222.932 132C222.745 131.603 222.535 131.253 222.348 130.879L220.201 126.677C220.119 126.552 220.048 126.419 219.991 126.281C219.758 125.814 219.571 125.44 219.431 125.207C219.375 125.118 219.328 125.025 219.291 124.927L223.539 120.795L224.029 120.328L221.158 117.48C218.155 121.754 214.147 125.226 209.488 127.588C199.499 132.957 186.475 132.653 186.475 132.653V135.478C186.475 135.478 186.475 135.712 186.475 135.898C185.891 140.124 182.6 167.413 182.6 170.564C182.6 170.564 182.88 171.241 185.308 171.778C190.255 172.567 195.285 172.709 200.269 172.198C201.949 172.198 203.536 171.965 204.937 171.801C208.991 171.442 212.996 170.66 216.887 169.467C223.142 167.413 227.017 164.238 228.744 159.709C231.638 152.006 228.837 143.322 226.27 138.49Z" fill="#263B7F"/>
<path d="M224.006 120.118C223.796 120.375 224.006 120.258 224.006 120.118C224.169 119.978 224.216 119.861 224.006 120.118Z" fill="#5F1D16"/>
<path d="M192.333 264.548C190.098 263.478 187.576 263.158 185.145 263.637C182.072 264.578 179.271 266.244 176.976 268.493H192.333V264.548Z" fill="#263B7F"/>
<path d="M266.625 250.704C266.522 254.975 265.894 259.216 264.758 263.334C263.754 265.061 260.09 266.368 259.903 267.115C259.716 267.862 266.672 268.586 268.586 267.115C270.499 265.645 274.561 255.443 274.561 255.443L268.329 249.514L266.625 250.704Z" fill="#263B7F"/>
<path d="M187.665 70.5583C187.315 70.3482 183.954 68.2239 181.433 69.2977C181.818 66.7138 182.451 64.173 183.324 61.7109C184.148 60.9803 184.927 60.2007 185.658 59.3765C185.682 59.5546 185.682 59.7352 185.658 59.9134C185.961 61.8743 186.358 69.5778 187.665 70.5583Z" fill="#263B7F"/>
<path d="M197.795 65.7261C194.13 65.9128 188.995 69.858 188.202 70.3949C189.114 68.3751 189.856 66.2824 190.419 64.1387C191.516 61.104 193.733 57.1355 193.64 56.4585H194.877L197.795 65.7261Z" fill="#263B7F"/>
<path d="M190.373 37.2929C190.32 37.3107 190.262 37.3107 190.209 37.2929C189.662 36.3497 189.374 35.2786 189.374 34.1882C189.374 33.0977 189.662 32.0266 190.209 31.0834C190.247 31.0583 190.292 31.0449 190.338 31.0449C190.383 31.0449 190.428 31.0583 190.466 31.0834C190.515 31.1038 190.556 31.1404 190.581 31.1871C190.607 31.2338 190.616 31.2878 190.606 31.3402C190.105 32.2225 189.841 33.22 189.841 34.2348C189.841 35.2497 190.105 36.2472 190.606 37.1295C190.626 37.147 190.642 37.1686 190.653 37.1927C190.664 37.2169 190.669 37.2431 190.669 37.2696C190.669 37.2961 190.664 37.3223 190.653 37.3464C190.642 37.3706 190.626 37.3921 190.606 37.4096L190.373 37.2929Z" fill="#983222"/>
<path d="M189.883 35.4954C189.841 35.4932 189.801 35.4787 189.768 35.4537C189.735 35.4288 189.71 35.3946 189.696 35.3554C189.663 35.3207 189.645 35.2747 189.645 35.227C189.645 35.1792 189.663 35.1333 189.696 35.0986C189.696 35.0986 190.559 34.7718 190.443 34.0948C190.443 33.8614 190.279 33.8147 190.256 33.8147C190.145 33.7671 190.026 33.7426 189.906 33.7426C189.786 33.7426 189.666 33.7671 189.556 33.8147C189.517 33.8491 189.467 33.8682 189.416 33.8682C189.364 33.8682 189.314 33.8491 189.276 33.8147C189.245 33.7743 189.229 33.7251 189.229 33.6746C189.229 33.6241 189.245 33.575 189.276 33.5345C189.62 33.3944 190.005 33.3944 190.349 33.5345C190.456 33.5946 190.547 33.6786 190.616 33.7798C190.685 33.881 190.729 33.9968 190.746 34.1181C190.773 34.4418 190.685 34.7645 190.497 35.0293C190.309 35.2941 190.033 35.484 189.719 35.5655C189.719 35.5655 189.906 35.4954 189.883 35.4954Z" fill="#983222"/>
<path d="M161.827 33.0911C161.778 33.0911 161.731 33.0714 161.696 33.0364C161.661 33.0013 161.641 32.9538 161.641 32.9043C161.641 32.7876 161.384 29.7295 162.318 28.7024C162.335 28.6825 162.357 28.6666 162.381 28.6557C162.405 28.6448 162.431 28.6392 162.458 28.6392C162.484 28.6392 162.51 28.6448 162.534 28.6557C162.559 28.6666 162.58 28.6825 162.598 28.7024C162.618 28.722 162.634 28.7455 162.646 28.7716C162.657 28.7977 162.663 28.8258 162.663 28.8541C162.663 28.8825 162.657 28.9105 162.646 28.9366C162.634 28.9627 162.618 28.9862 162.598 29.0059C162.034 30.2227 161.832 31.5758 162.014 32.9043C162.018 32.9307 162.015 32.9575 162.007 32.983C162 33.0084 161.986 33.0318 161.969 33.0517C161.951 33.0716 161.929 33.0875 161.905 33.0983C161.881 33.1091 161.854 33.1146 161.827 33.1144V33.0911Z" fill="#993E3A"/>
<path d="M165.819 21.9092C165.786 21.8746 165.768 21.8286 165.768 21.7808C165.768 21.7331 165.786 21.6871 165.819 21.6524C166.668 20.2659 167.806 19.0794 169.156 18.1742C169.191 18.1413 169.237 18.123 169.285 18.123C169.332 18.123 169.378 18.1413 169.413 18.1742C169.424 18.2002 169.43 18.2282 169.431 18.2565C169.431 18.2849 169.425 18.313 169.414 18.3392C169.404 18.3653 169.387 18.389 169.367 18.4088C169.347 18.4286 169.323 18.4441 169.296 18.4543C167.971 19.3143 166.842 20.4437 165.982 21.7692C165.97 21.8051 165.948 21.8371 165.92 21.8617C165.891 21.8864 165.856 21.9028 165.819 21.9092Z" fill="#993E3A"/>
<path d="M181.293 22.166H181.153C179.099 20.4619 173.614 20.9988 173.568 20.9988C173.54 21.0061 173.51 21.0067 173.482 21.0006C173.454 20.9946 173.427 20.982 173.404 20.9638C173.382 20.9457 173.364 20.9226 173.351 20.8962C173.339 20.8699 173.333 20.8411 173.334 20.8121C173.333 20.7574 173.351 20.7042 173.385 20.6615C173.42 20.6189 173.468 20.5895 173.521 20.5786C173.754 20.5786 179.239 20.0184 181.41 21.8392C181.43 21.8567 181.446 21.8783 181.457 21.9024C181.468 21.9266 181.473 21.9528 181.473 21.9793C181.473 22.0058 181.468 22.0319 181.457 22.0561C181.446 22.0802 181.43 22.1018 181.41 22.1193C181.41 22.1193 181.34 22.166 181.293 22.166Z" fill="#993E3A"/>
<path d="M184.491 21.5358C184.462 21.5502 184.43 21.5576 184.398 21.5576C184.365 21.5576 184.333 21.5502 184.304 21.5358C183.466 20.4147 182.467 19.4236 181.34 18.5944C181.319 18.5748 181.303 18.5512 181.292 18.5251C181.281 18.4991 181.275 18.471 181.275 18.4427C181.275 18.4143 181.281 18.3862 181.292 18.3602C181.303 18.3341 181.319 18.3105 181.34 18.2909C181.378 18.2565 181.428 18.2374 181.48 18.2374C181.532 18.2374 181.582 18.2565 181.62 18.2909C182.803 19.1398 183.843 20.1721 184.701 21.349C184.735 21.3875 184.754 21.4374 184.754 21.4891C184.754 21.5407 184.735 21.5906 184.701 21.6291L184.491 21.5358Z" fill="#993E3A"/>
<path d="M159.82 33.091H159.657C158.28 31.6437 158.98 27.8386 159.12 27.6285C159.153 27.595 159.197 27.5735 159.243 27.5676C159.29 27.5617 159.337 27.5716 159.378 27.5959C159.418 27.6201 159.449 27.6572 159.466 27.7012C159.483 27.7453 159.484 27.7936 159.47 27.8386C159.33 28.1888 158.817 31.597 159.96 32.7875C159.993 32.8316 160.01 32.8847 160.01 32.9393C160.01 32.9938 159.993 33.047 159.96 33.091H159.82Z" fill="#993E3A"/>
<path d="M204.633 17.7073C204.585 17.7085 204.537 17.6929 204.499 17.6631C204.461 17.6333 204.434 17.5912 204.423 17.5439C204.423 17.5439 202.999 11.8246 199.195 10.5407C195.391 9.25673 194.527 11.7545 194.527 11.7779C194.519 11.8035 194.506 11.8272 194.489 11.8474C194.471 11.8676 194.45 11.8838 194.425 11.8948C194.401 11.9059 194.374 11.9116 194.348 11.9116C194.321 11.9115 194.295 11.9057 194.27 11.8946C194.218 11.8784 194.174 11.8425 194.148 11.7946C194.122 11.7467 194.116 11.6904 194.13 11.6378C194.13 11.6378 195.181 8.81319 199.288 10.1671C203.396 11.5211 204.727 17.1704 204.773 17.4272C204.783 17.4795 204.774 17.5335 204.749 17.5802C204.723 17.6269 204.682 17.6635 204.633 17.6839V17.7073Z" fill="#5F1D16"/>
<path d="M206.5 14.766C206.451 14.756 206.406 14.7301 206.372 14.6922C206.338 14.6543 206.318 14.6064 206.314 14.5559C206.196 12.4431 205.563 10.3913 204.47 8.5798C204.45 8.56228 204.434 8.54073 204.423 8.51658C204.412 8.49243 204.407 8.46624 204.407 8.43974C204.407 8.41325 204.412 8.38705 204.423 8.3629C204.434 8.33875 204.45 8.3172 204.47 8.29968C204.487 8.2798 204.509 8.26389 204.533 8.25299C204.557 8.24209 204.583 8.23645 204.61 8.23645C204.636 8.23645 204.663 8.24209 204.687 8.25299C204.711 8.26389 204.732 8.2798 204.75 8.29968C205.902 10.166 206.561 12.2948 206.664 14.4859C206.675 14.5149 206.679 14.546 206.676 14.5769C206.673 14.6078 206.664 14.6377 206.648 14.6645C206.633 14.6912 206.611 14.7142 206.586 14.7318C206.56 14.7493 206.531 14.761 206.5 14.766Z" fill="#5F1D16"/>
<path d="M194.387 15.3029C194.353 15.2644 194.334 15.2145 194.334 15.1628C194.334 15.1111 194.353 15.0613 194.387 15.0227C194.387 15.0227 195.461 12.9685 196.721 13.0385C196.749 13.0385 196.776 13.0439 196.801 13.0545C196.827 13.065 196.85 13.0805 196.87 13.1C196.889 13.1195 196.905 13.1427 196.915 13.1682C196.926 13.1937 196.931 13.221 196.931 13.2486C196.92 13.3021 196.891 13.3501 196.848 13.3842C196.806 13.4184 196.752 13.4364 196.698 13.4353C195.787 13.4353 194.924 14.6959 194.667 15.2095C194.642 15.2588 194.599 15.2962 194.546 15.3137C194.494 15.3312 194.437 15.3273 194.387 15.3029Z" fill="#5F1D16"/>
<path d="M201.599 25.4575C201.575 25.4575 201.55 25.4526 201.528 25.4433C201.505 25.4339 201.484 25.4201 201.467 25.4028C201.45 25.3854 201.436 25.3648 201.427 25.3422C201.417 25.3195 201.412 25.2952 201.412 25.2707C201.039 22.5862 197.585 19.6215 196.534 18.8044C196.5 18.7659 196.481 18.716 196.481 18.6643C196.481 18.6127 196.5 18.5628 196.534 18.5243C196.552 18.5044 196.573 18.4885 196.598 18.4776C196.622 18.4667 196.648 18.4611 196.674 18.4611C196.701 18.4611 196.727 18.4667 196.751 18.4776C196.775 18.4885 196.797 18.5044 196.814 18.5243C197.911 19.388 201.482 22.4227 201.833 25.2707C201.84 25.323 201.827 25.3761 201.796 25.4194C201.766 25.4626 201.721 25.4929 201.669 25.5042L201.599 25.4575Z" fill="#5F1D16"/>
<path d="M213.246 37.3163C213.194 37.3051 213.149 37.2748 213.119 37.2316C213.088 37.1883 213.075 37.1352 213.082 37.0829C212.978 34.6129 212.265 32.207 211.005 30.0797C210.962 30.0425 210.935 29.9897 210.931 29.9328C210.926 29.8759 210.945 29.8195 210.982 29.7762C211.019 29.7329 211.072 29.7061 211.129 29.7017C211.186 29.6973 211.242 29.7157 211.285 29.7529C212.638 31.9398 213.394 34.4428 213.479 37.0129C213.519 37.0438 213.546 37.0895 213.552 37.1398C213.559 37.1902 213.545 37.2411 213.514 37.2813C213.483 37.3216 213.438 37.3479 213.387 37.3544C213.337 37.361 213.286 37.3473 213.246 37.3163Z" fill="#5F1D16"/>
<path d="M214.973 34.6317C214.92 34.6208 214.872 34.5915 214.837 34.5488C214.803 34.5062 214.785 34.4529 214.786 34.3983C214.952 32.6316 214.471 30.8649 213.433 29.426C213.433 29.426 213.433 29.426 213.433 29.3093C213.413 29.2918 213.397 29.2702 213.386 29.2461C213.375 29.2219 213.369 29.1957 213.369 29.1692C213.369 29.1427 213.375 29.1165 213.386 29.0924C213.397 29.0682 213.413 29.0467 213.433 29.0292C213.45 29.0093 213.472 28.9934 213.496 28.9825C213.52 28.9716 213.546 28.9659 213.573 28.9659C213.599 28.9659 213.625 28.9716 213.649 28.9825C213.674 28.9934 213.695 29.0093 213.713 29.0292C214.799 30.5539 215.304 32.4169 215.136 34.2816C215.164 34.3122 215.182 34.3503 215.188 34.391C215.194 34.4317 215.188 34.4733 215.17 34.5106C215.153 34.5479 215.125 34.5793 215.09 34.6008C215.055 34.6223 215.014 34.6331 214.973 34.6317Z" fill="#5F1D16"/>
<path d="M174.781 54.054C174.781 54.054 180.92 51.0893 182.157 49.0117C182.275 51.2577 181.579 53.4709 180.196 55.2446C177.956 57.7424 174.781 54.054 174.781 54.054Z" fill="white"/>
<path d="M170.954 51.4394C170.362 51.4256 169.774 51.3393 169.203 51.1827C169.155 51.162 169.117 51.1242 169.095 51.0768C169.074 51.0293 169.071 50.9755 169.086 50.9259C169.086 50.9259 169.6 48.9416 170.02 46.6772C170.311 45.8212 170.38 44.9054 170.221 44.0154C170.062 43.1254 169.679 42.2903 169.11 41.5882C169.075 41.5497 169.056 41.4999 169.056 41.4482C169.056 41.3965 169.075 41.3466 169.11 41.3081C169.152 41.2719 169.206 41.2521 169.261 41.2521C169.317 41.2521 169.371 41.2719 169.413 41.3081C170.037 42.0504 170.462 42.9385 170.65 43.8895C170.838 44.8406 170.781 45.8237 170.487 46.7473C170.137 48.6148 169.74 50.2956 169.577 50.8325C170.449 51.1145 171.388 51.1145 172.261 50.8325C172.897 50.5966 173.422 50.13 173.731 49.5252C173.769 49.5001 173.814 49.4868 173.859 49.4868C173.905 49.4868 173.95 49.5001 173.988 49.5252C174.021 49.5599 174.039 49.6059 174.039 49.6536C174.039 49.7014 174.021 49.7473 173.988 49.782C173.826 50.1319 173.596 50.4462 173.311 50.7066C173.027 50.9671 172.693 51.1686 172.331 51.2994C171.886 51.4392 171.417 51.4868 170.954 51.4394Z" fill="#983222"/>
<path d="M197.818 131.486H197.421C194.779 124.627 192.565 117.61 190.793 110.477C189.789 106.648 188.739 103.473 187.805 100.789C187.012 98.4544 186.358 96.5402 185.868 94.6027C185.057 90.7999 185.136 86.8608 186.101 83.094L186.265 82.0436C186.732 79.3123 187.058 76.7211 187.338 74.4334C187.502 72.9627 187.665 71.6555 187.828 70.6283C187.868 70.6488 187.912 70.6595 187.957 70.6595C188.001 70.6595 188.045 70.6488 188.085 70.6283H188.202V70.5116C188.015 71.5854 187.852 73.0328 187.642 74.6435C187.362 76.9779 187.058 79.5458 186.592 82.277L186.405 83.3275C185.453 87.0406 185.373 90.9236 186.171 94.6727C186.638 96.5869 187.315 98.5478 188.085 100.812C189.019 103.567 190.093 106.695 191.096 110.547C192.901 117.659 195.146 124.652 197.818 131.486Z" fill="#993E3A"/>
<path d="M197.398 96.5869C197.166 96.617 196.93 96.617 196.698 96.5869C196.671 96.5871 196.645 96.5816 196.621 96.5708C196.596 96.56 196.574 96.5441 196.557 96.5242C196.539 96.5044 196.526 96.4809 196.518 96.4555C196.51 96.43 196.508 96.4032 196.511 96.3768C196.517 96.3252 196.541 96.2776 196.58 96.2431C196.619 96.2087 196.669 96.1897 196.721 96.1901C199.367 96.3379 201.985 95.5804 204.143 94.0424C205.417 93.1786 206.493 92.053 207.298 90.7407C208.103 89.4285 208.619 87.9597 208.811 86.4322C208.814 86.4052 208.822 86.3791 208.836 86.3557C208.849 86.3322 208.868 86.312 208.89 86.2965C208.912 86.2809 208.938 86.2704 208.964 86.2656C208.991 86.2608 209.019 86.2619 209.045 86.2688C209.072 86.2713 209.098 86.2797 209.121 86.2933C209.145 86.3069 209.165 86.3255 209.181 86.3477C209.196 86.3699 209.207 86.3953 209.211 86.4219C209.216 86.4486 209.215 86.4761 209.208 86.5023C209.009 88.0848 208.473 89.6062 207.636 90.9635C206.798 92.3207 205.679 93.4822 204.353 94.3692C202.32 95.8104 199.89 96.5852 197.398 96.5869Z" fill="#993E3A"/>
<path d="M182.694 100.182C181.682 100.123 180.691 99.8695 179.776 99.4349C179.743 99.4336 179.711 99.4244 179.682 99.4082C179.653 99.3919 179.628 99.3689 179.609 99.3412C179.591 99.3136 179.579 99.2819 179.576 99.2488C179.572 99.2158 179.576 99.1823 179.588 99.1512C179.599 99.1201 179.618 99.0922 179.643 99.0698C179.667 99.0473 179.697 99.0311 179.729 99.0223C179.761 99.0136 179.795 99.0125 179.827 99.0193C179.86 99.0261 179.89 99.0405 179.916 99.0614C180.853 99.5672 181.911 99.8017 182.974 99.7384C183.024 99.7395 183.074 99.7557 183.115 99.7847C183.157 99.8138 183.189 99.8546 183.207 99.9018C183.214 99.928 183.215 99.9554 183.21 99.9821C183.206 100.009 183.195 100.034 183.18 100.056C183.164 100.079 183.144 100.097 183.12 100.111C183.097 100.124 183.071 100.133 183.044 100.135C183.044 100.135 182.927 100.182 182.694 100.182Z" fill="#993E3A"/>
<path d="M213.713 82.1135H213.549H213.409L208.485 77.7949C208.45 77.7564 208.431 77.7065 208.431 77.6548C208.431 77.6032 208.45 77.5533 208.485 77.5148C208.502 77.4949 208.524 77.479 208.548 77.4681C208.572 77.4572 208.598 77.4515 208.625 77.4515C208.651 77.4515 208.677 77.4572 208.702 77.4681C208.726 77.479 208.747 77.4949 208.765 77.5148L213.666 81.7867C213.698 81.7982 213.726 81.8182 213.748 81.8445C213.769 81.8708 213.783 81.9025 213.788 81.9361C213.793 81.9697 213.788 82.004 213.775 82.0353C213.762 82.0665 213.74 82.0936 213.713 82.1135Z" fill="#993E3A"/>
<path d="M224.169 71.9122C220.951 75.4889 218.758 79.8682 217.821 84.588L217.471 84.3546C218.417 79.5777 220.644 75.1479 223.912 71.5387C224.007 71.6569 224.093 71.7817 224.169 71.9122Z" fill="#993E3A"/>
<path d="M224.169 120.328C222.71 122.026 221.101 123.588 219.361 124.997C217.259 126.711 215.036 128.271 212.709 129.665L212.359 129.899C209.149 131.886 205.697 133.455 202.089 134.568L201.693 134.708L199.989 135.128C197.145 135.755 194.242 136.076 191.33 136.085H190.069C188.788 136.043 187.509 135.926 186.241 135.735C186.241 135.548 186.241 135.408 186.241 135.315C190.773 135.975 195.387 135.785 199.849 134.754L201.623 134.311H201.833C208.149 132.216 214.005 128.927 219.081 124.623C219.315 124.456 219.534 124.269 219.734 124.063L220.388 123.503C221.428 122.558 222.41 121.553 223.329 120.491C223.469 120.328 223.609 120.141 223.772 119.978C223.912 119.838 224.006 119.698 223.772 119.978L224.169 120.328Z" fill="#A6DDEB"/>
<path d="M188.762 145.819C188.711 145.808 188.665 145.778 188.635 145.735C188.604 145.691 188.592 145.638 188.599 145.586C188.925 143.719 190.186 136.248 190.209 136.062C190.22 136.01 190.251 135.965 190.294 135.934C190.337 135.904 190.39 135.891 190.443 135.898C190.492 135.914 190.534 135.945 190.564 135.987C190.594 136.029 190.608 136.08 190.606 136.132C190.606 136.132 189.322 143.789 188.995 145.656C188.98 145.705 188.949 145.748 188.907 145.778C188.864 145.807 188.814 145.822 188.762 145.819Z" fill="#A6DDEB"/>
<path d="M203.77 145.819C203.722 145.814 203.677 145.793 203.643 145.759C203.61 145.725 203.588 145.681 203.583 145.633C203.28 141.934 202.647 138.27 201.693 134.684C201.684 134.635 201.694 134.585 201.72 134.542C201.745 134.499 201.785 134.467 201.833 134.451C201.858 134.44 201.887 134.435 201.915 134.436C201.943 134.438 201.97 134.446 201.995 134.459C202.02 134.472 202.041 134.491 202.057 134.514C202.073 134.537 202.084 134.563 202.089 134.591C203.046 138.2 203.679 141.888 203.98 145.609C203.98 145.661 203.961 145.711 203.927 145.75C203.892 145.789 203.845 145.814 203.793 145.819H203.77Z" fill="#A6DDEB"/>
<path d="M217.984 145.493C217.955 145.506 217.923 145.512 217.891 145.512C217.859 145.512 217.827 145.506 217.797 145.493C217.797 145.493 215.977 141.594 214.226 137.743C213.178 135.358 212.569 132.803 212.429 130.202C212.425 130.174 212.428 130.145 212.437 130.118C212.446 130.09 212.462 130.066 212.482 130.045C212.503 130.025 212.527 130.01 212.554 130C212.582 129.991 212.611 129.988 212.639 129.992C212.689 129.992 212.736 130.012 212.771 130.047C212.806 130.082 212.826 130.13 212.826 130.179C212.962 132.733 213.563 135.241 214.6 137.579C216.327 141.431 218.147 145.259 218.171 145.306C218.205 145.345 218.224 145.394 218.224 145.446C218.224 145.498 218.205 145.548 218.171 145.586L217.984 145.493Z" fill="#A6DDEB"/>
<path d="M167.803 44.5529C168.246 45.8368 168.106 47.0741 167.476 47.2842C166.846 47.4943 166.006 46.6305 165.539 45.3233C165.072 44.016 165.259 42.8021 165.866 42.5687C166.472 42.3352 167.359 43.2457 167.803 44.5529Z" fill="#1E1724"/>
<path d="M178.889 40.2577C179.356 41.565 179.193 42.8022 178.563 43.0123C177.932 43.2224 177.092 42.3353 176.649 41.0281C176.205 39.7208 176.345 38.5069 176.952 38.2968C177.559 38.0867 178.446 38.9505 178.889 40.2577Z" fill="#1E1724"/>
<path d="M182.437 108.142V109.73C182.437 109.73 179.193 117.106 176.578 121.658C174.177 125.079 171.162 128.023 167.686 130.342C166.075 132.14 164.395 134.031 163.508 133.517L163.345 133.377C162.528 132.467 164.255 130.156 164.255 130.156L161.431 131.44C161.431 131.44 161.011 135.081 160.007 134.801C159.003 134.521 159.213 129.946 160.007 128.638C160.801 127.331 164.675 126.304 164.675 126.304C164.675 126.304 167.009 121.168 169.833 114.095C171.83 108.356 173.344 102.461 174.361 96.4702H174.618C176.193 97.6744 177.95 98.62 179.823 99.2715L181.34 99.7851C181.34 99.7851 181.923 103.473 182.437 108.142Z" fill="#F1B5AB"/>
<path d="M182.437 108.142V109.73C182.437 109.73 179.193 117.106 176.578 121.658C174.177 125.079 171.162 128.023 167.686 130.342C166.075 132.14 164.395 134.031 163.508 133.517L166.986 129.759C168.293 128.358 177.185 116.406 178.492 111.644C179.311 107.569 179.756 103.427 179.823 99.2715L181.34 99.7851C181.34 99.7851 181.923 103.473 182.437 108.142Z" fill="#F5948D"/>
<path d="M291.062 239.593C277.361 239.593 268.982 213.914 261.957 186.158C255.188 159.289 244.662 144.139 227.6 125.58C211.145 107.652 200.362 108.983 187.922 112.578C176.252 115.962 167.663 130.272 166.916 132.187C166.835 132.806 166.512 133.368 166.018 133.748C165.523 134.129 164.898 134.298 164.279 134.218C163.659 134.137 163.098 133.814 162.717 133.319C162.336 132.825 162.167 132.199 162.248 131.58C162.248 129.012 173.008 111.924 186.755 107.932C200.502 103.94 213.013 102.353 231.311 122.289C248.91 141.431 259.786 157.095 266.812 184.968C270.593 199.954 279.369 234.737 291.225 234.737H291.739C292.057 234.698 292.379 234.725 292.686 234.816C292.993 234.907 293.277 235.06 293.523 235.266C293.768 235.472 293.968 235.726 294.111 236.012C294.254 236.299 294.336 236.612 294.353 236.931C294.396 237.262 294.368 237.599 294.271 237.918C294.173 238.237 294.008 238.532 293.787 238.782C293.565 239.032 293.293 239.232 292.988 239.368C292.683 239.503 292.353 239.572 292.019 239.569L291.062 239.593Z" fill="#A6D6B4"/>
<path d="M193.64 56.5518C193.64 57.1354 191.516 61.2206 190.419 64.232C189.322 67.2433 188.622 71.2352 187.688 70.5816C186.381 69.6711 185.961 61.8975 185.751 59.9366C185.776 59.7585 185.776 59.5779 185.751 59.3997C185.685 59.1157 185.583 58.8411 185.448 58.5827C185.146 57.9257 184.745 57.3193 184.258 56.7852C185.094 56.0171 185.874 55.1902 186.592 54.3107C188.308 51.6222 189.201 48.4898 189.159 45.2999C190.206 47.3309 191.118 49.4286 191.89 51.5795C192.893 54.1006 193.594 56.2716 193.64 56.5518Z" fill="#F1B5AB"/>
<path d="M191.96 51.5795C190.339 54.401 188.076 56.8004 185.354 58.5827C185.053 57.9257 184.651 57.3193 184.164 56.7852C185 56.0171 185.78 55.1902 186.498 54.3107C188.248 51.6324 189.173 48.4993 189.159 45.2999C190.23 47.3291 191.165 49.4268 191.96 51.5795Z" fill="#F5948D"/>
<path d="M237.683 125.347C238.383 129.479 236.983 132.21 236.072 132.21C235.536 132.21 235.629 131.136 235.816 130.272C235.883 129.91 235.968 129.552 236.072 129.199L235.886 129.525C235.372 130.436 233.995 132.747 233.272 132.583C232.548 132.42 232.805 131.836 232.945 131.229C233.005 130.879 233.098 130.535 233.225 130.202L232.875 130.879C232.455 131.603 231.848 132.467 231.334 132.093C230.821 131.72 231.031 131.159 231.171 130.412C231.288 129.761 231.459 129.121 231.685 128.498C231.685 128.498 231.685 128.755 231.521 128.895C231.148 129.735 230.541 130.833 230.027 130.366C229.514 129.899 230.634 123.199 230.634 123.199C230.634 123.199 228.3 125.02 227.297 123.806C227.231 123.708 227.186 123.597 227.166 123.48C227.146 123.363 227.151 123.244 227.18 123.129C227.46 121.682 230.097 119.371 229.934 118.951C229.771 118.53 229.024 107.745 227.6 100.462C226.775 97.3662 226.436 94.1609 226.596 90.961C226.596 90.6108 221.018 87.2493 219.851 85.872C219.851 85.872 220.831 84.1445 221.858 82.1369C222.349 81.1565 222.862 80.106 223.259 79.1489C224.08 77.2756 225.131 75.5114 226.386 73.8965C229.962 77.223 233.299 80.7955 236.376 84.5881C236.376 84.5881 237.8 86.3155 237.986 92.9919C238.173 99.6683 236.189 118.437 236.189 118.437C236.844 120.703 237.343 123.012 237.683 125.347Z" fill="#F1B5AB"/>
<path d="M230.704 108.679C230.849 112.454 230.591 116.234 229.934 119.954C229.108 121.103 228.179 122.174 227.157 123.152C227.437 121.705 230.074 119.394 229.911 118.974C229.748 118.554 229.001 107.769 227.577 100.485C226.752 97.3896 226.413 94.1842 226.573 90.9843C226.573 90.6342 220.995 87.2726 219.828 85.8953C219.828 85.8953 220.808 84.1679 221.835 82.1603C224.54 84.4361 226.708 87.282 228.184 90.4941C229.913 96.3989 230.763 102.526 230.704 108.679Z" fill="#F5948D"/>
<path d="M231.562 128.877C231.601 128.758 231.642 128.639 231.685 128.522C231.685 128.522 231.685 128.733 231.562 128.877Z" fill="#993E3A"/>
<path d="M232.922 131.229C232.981 130.879 233.075 130.535 233.202 130.202L232.852 130.879C233.348 129.657 233.731 128.391 233.995 127.098H234.205C233.913 128.513 233.483 129.897 232.922 131.229Z" fill="#993E3A"/>
<path d="M235.839 130.272C235.906 129.91 235.992 129.552 236.096 129.199L235.909 129.525C236.279 128.578 236.492 127.577 236.539 126.561C236.539 126.561 236.539 126.561 236.656 126.561C236.603 127.836 236.326 129.092 235.839 130.272Z" fill="#993E3A"/>
<path d="M320.61 223.952C336.53 223.952 349.435 220.785 349.435 216.879C349.435 212.972 336.53 209.806 320.61 209.806C304.691 209.806 291.785 212.972 291.785 216.879C291.785 220.785 304.691 223.952 320.61 223.952Z" fill="#FFC40C"/>
<path d="M320.611 212.537C310.878 212.537 302.966 214.474 302.966 216.879C302.966 219.283 310.878 221.197 320.611 221.197C330.344 221.197 338.256 219.26 338.256 216.879C338.256 214.498 330.367 212.537 320.611 212.537Z" fill="#F79738"/>
<path d="M292.976 273.558C293.292 272.781 293.827 272.113 294.515 271.634C295.204 271.154 296.016 270.885 296.854 270.857C297.692 270.83 298.521 271.046 299.239 271.479C299.957 271.913 300.534 272.545 300.901 273.299C301.267 274.054 301.408 274.898 301.304 275.731C301.201 276.563 300.859 277.348 300.32 277.99C299.78 278.632 299.066 279.105 298.264 279.35C297.462 279.595 296.606 279.602 295.8 279.371C294.671 278.953 293.746 278.116 293.22 277.032C292.694 275.949 292.606 274.704 292.976 273.558Z" fill="#5F1D16"/>
<path d="M296.85 277.107C296.719 277.129 296.585 277.129 296.453 277.107C296.23 277.032 296.024 276.913 295.847 276.756C295.671 276.6 295.528 276.409 295.427 276.196C295.18 275.582 295.18 274.896 295.427 274.282C295.528 273.796 295.782 273.355 296.152 273.024C296.521 272.692 296.986 272.487 297.48 272.438H297.877C298.106 272.51 298.316 272.631 298.493 272.792C298.67 272.953 298.811 273.151 298.904 273.371C299.186 273.962 299.236 274.637 299.044 275.262C298.936 275.77 298.661 276.227 298.264 276.561C297.866 276.895 297.369 277.087 296.85 277.107Z" fill="#9FD8D4"/>
<path d="M350.206 264.057C340.791 267.998 330.74 270.197 320.54 270.547H317.086C310.129 270.618 303.208 269.553 296.594 267.395C294.61 266.759 292.675 265.978 290.805 265.061V264.15C300.04 268.561 310.264 270.492 320.471 269.753C330.699 269.396 340.776 267.173 350.206 263.193V264.057Z" fill="#CE615A"/>
<path d="M338.115 230.325H337.205C337.166 230.325 337.128 230.317 337.092 230.302C337.057 230.286 337.025 230.263 336.998 230.235C336.972 230.206 336.952 230.173 336.939 230.136C336.927 230.099 336.922 230.06 336.925 230.022C336.925 229.941 336.957 229.864 337.014 229.807C337.071 229.75 337.148 229.718 337.228 229.718C340.268 229.823 343.309 229.557 346.284 228.924C346.321 228.91 346.36 228.903 346.4 228.905C346.439 228.907 346.478 228.917 346.513 228.934C346.548 228.952 346.579 228.977 346.604 229.007C346.629 229.038 346.647 229.073 346.658 229.111C346.689 229.185 346.689 229.269 346.658 229.343C346.628 229.418 346.569 229.477 346.494 229.508C343.748 230.136 340.932 230.411 338.115 230.325Z" fill="#CE615A"/>
<path d="M338.139 233.313H337.205C337.165 233.31 337.126 233.299 337.091 233.281C337.055 233.263 337.023 233.238 336.997 233.208C336.971 233.178 336.951 233.142 336.939 233.104C336.927 233.066 336.922 233.026 336.925 232.986C336.925 232.947 336.933 232.909 336.948 232.873C336.964 232.838 336.987 232.806 337.015 232.779C337.044 232.753 337.077 232.733 337.114 232.72C337.151 232.708 337.19 232.703 337.228 232.706C340.268 232.8 343.308 232.534 346.284 231.912C346.321 231.898 346.36 231.891 346.4 231.893C346.439 231.895 346.478 231.905 346.513 231.922C346.548 231.94 346.579 231.965 346.604 231.995C346.629 232.026 346.647 232.061 346.658 232.099C346.673 232.134 346.68 232.172 346.68 232.21C346.68 232.248 346.672 232.286 346.657 232.321C346.642 232.356 346.619 232.388 346.591 232.414C346.563 232.44 346.53 232.46 346.494 232.473C343.757 233.109 340.948 233.391 338.139 233.313Z" fill="#CE615A"/>
<path d="M338.139 236.371H337.205C337.165 236.368 337.126 236.357 337.091 236.339C337.055 236.321 337.023 236.296 336.997 236.266C336.971 236.236 336.951 236.2 336.939 236.162C336.927 236.124 336.922 236.084 336.925 236.044C336.925 236.005 336.933 235.967 336.948 235.931C336.964 235.896 336.987 235.864 337.015 235.838C337.044 235.811 337.077 235.791 337.114 235.778C337.151 235.766 337.19 235.761 337.228 235.764C340.268 235.858 343.308 235.592 346.284 234.971C346.321 234.956 346.36 234.949 346.4 234.951C346.439 234.953 346.478 234.963 346.513 234.98C346.548 234.998 346.579 235.023 346.604 235.053C346.629 235.084 346.647 235.119 346.658 235.157C346.673 235.192 346.68 235.23 346.68 235.268C346.68 235.307 346.672 235.344 346.657 235.379C346.642 235.414 346.619 235.446 346.591 235.472C346.563 235.498 346.53 235.518 346.494 235.531C343.757 236.167 340.948 236.45 338.139 236.371Z" fill="#CE615A"/>
<path d="M338.115 239.383H337.205C337.165 239.38 337.126 239.369 337.091 239.351C337.055 239.333 337.023 239.308 336.997 239.277C336.971 239.247 336.951 239.212 336.939 239.174C336.927 239.136 336.922 239.096 336.925 239.056C336.925 239.017 336.933 238.978 336.948 238.943C336.964 238.907 336.987 238.875 337.015 238.849C337.044 238.823 337.077 238.802 337.114 238.79C337.151 238.777 337.19 238.772 337.228 238.776C340.268 238.87 343.308 238.603 346.284 237.982C346.321 237.967 346.36 237.961 346.4 237.962C346.439 237.964 346.478 237.974 346.513 237.992C346.548 238.009 346.579 238.034 346.604 238.065C346.629 238.095 346.647 238.131 346.658 238.169C346.673 238.204 346.68 238.242 346.68 238.28C346.68 238.318 346.672 238.356 346.657 238.391C346.642 238.426 346.619 238.457 346.591 238.483C346.563 238.509 346.53 238.529 346.494 238.542C343.749 239.178 340.933 239.461 338.115 239.383Z" fill="#CE615A"/>
<path d="M338.139 242.417H337.205C337.127 242.406 337.055 242.367 337.004 242.307C336.952 242.246 336.924 242.17 336.925 242.09C336.925 242.052 336.933 242.013 336.949 241.978C336.964 241.942 336.987 241.91 337.015 241.884C337.044 241.857 337.078 241.837 337.114 241.825C337.151 241.812 337.19 241.807 337.229 241.81C340.268 241.904 343.308 241.638 346.285 241.017C346.321 241.002 346.36 240.996 346.4 240.997C346.439 240.999 346.478 241.009 346.513 241.027C346.548 241.044 346.579 241.069 346.604 241.1C346.629 241.13 346.648 241.165 346.658 241.203C346.673 241.239 346.681 241.276 346.68 241.315C346.68 241.353 346.672 241.39 346.657 241.425C346.642 241.46 346.619 241.492 346.591 241.518C346.564 241.544 346.531 241.564 346.495 241.577C343.757 242.213 340.949 242.496 338.139 242.417Z" fill="#CE615A"/>
<path d="M338.139 245.149H337.205C337.166 245.149 337.128 245.141 337.092 245.125C337.057 245.11 337.025 245.087 336.999 245.058C336.972 245.03 336.952 244.996 336.939 244.959C336.927 244.923 336.922 244.884 336.925 244.845C336.922 244.804 336.927 244.763 336.941 244.725C336.955 244.686 336.977 244.651 337.006 244.623C337.035 244.594 337.07 244.571 337.108 244.557C337.147 244.543 337.188 244.538 337.229 244.542C340.268 244.636 343.308 244.369 346.285 243.748C346.321 243.733 346.36 243.727 346.4 243.728C346.439 243.73 346.478 243.74 346.513 243.758C346.548 243.775 346.579 243.8 346.604 243.831C346.629 243.861 346.648 243.897 346.658 243.935C346.689 244.009 346.689 244.092 346.659 244.167C346.628 244.241 346.569 244.301 346.495 244.331C343.756 244.96 340.948 245.235 338.139 245.149Z" fill="#CE615A"/>
<path d="M338.139 247.926H337.205C337.166 247.927 337.128 247.919 337.092 247.903C337.057 247.888 337.025 247.865 336.998 247.836C336.972 247.808 336.952 247.774 336.939 247.737C336.927 247.701 336.922 247.662 336.925 247.623C336.925 247.543 336.957 247.465 337.014 247.408C337.071 247.352 337.148 247.32 337.228 247.32C340.268 247.413 343.308 247.147 346.284 246.526C346.359 246.503 346.439 246.51 346.508 246.545C346.578 246.579 346.631 246.64 346.658 246.713C346.689 246.787 346.689 246.87 346.658 246.945C346.628 247.019 346.569 247.078 346.494 247.109C343.756 247.738 340.948 248.013 338.139 247.926Z" fill="#CE615A"/>
<path d="M338.115 250.541H337.205C337.166 250.541 337.128 250.533 337.092 250.518C337.057 250.502 337.025 250.479 336.998 250.451C336.972 250.422 336.952 250.389 336.939 250.352C336.927 250.315 336.922 250.276 336.925 250.238C336.93 250.159 336.964 250.085 337.02 250.029C337.076 249.973 337.15 249.94 337.228 249.934C340.267 250.04 343.307 249.781 346.284 249.164C346.321 249.149 346.36 249.143 346.4 249.144C346.439 249.146 346.478 249.156 346.513 249.174C346.548 249.191 346.579 249.216 346.604 249.247C346.629 249.277 346.647 249.312 346.658 249.351C346.673 249.386 346.68 249.423 346.68 249.462C346.68 249.5 346.672 249.538 346.657 249.573C346.642 249.608 346.619 249.639 346.591 249.665C346.563 249.691 346.53 249.711 346.494 249.724C343.748 250.352 340.932 250.627 338.115 250.541Z" fill="#CE615A"/>
<path d="M338.139 254.113H337.205C337.166 254.113 337.128 254.105 337.092 254.089C337.057 254.074 337.025 254.051 336.998 254.023C336.972 253.994 336.952 253.96 336.939 253.924C336.927 253.887 336.922 253.848 336.925 253.809C336.925 253.729 336.957 253.651 337.014 253.595C337.071 253.538 337.148 253.506 337.228 253.506C340.268 253.6 343.308 253.333 346.284 252.712C346.321 252.697 346.36 252.691 346.4 252.693C346.439 252.694 346.478 252.704 346.513 252.722C346.548 252.739 346.579 252.764 346.604 252.795C346.629 252.825 346.647 252.861 346.658 252.899C346.689 252.973 346.689 253.057 346.658 253.131C346.628 253.205 346.569 253.265 346.494 253.296C343.756 253.924 340.948 254.199 338.139 254.113Z" fill="#CE615A"/>
<path d="M167.453 131.113L149.971 169.514L143.879 182.867L113.607 249.397L108.495 260.579L101.89 261.513L107.515 249.397L138.347 182.867L144.509 169.514L162.108 131.58L167.453 131.113Z" fill="#4D4263"/>
<path d="M101.913 261.513L79.9504 269.076L118.462 269.73L114.844 267.115L108.659 260.229L101.913 261.513Z" fill="#F79738"/>
<path d="M79.9504 269.076V273.115H118.462V269.73L79.9504 269.076Z" fill="#CA6428"/>
<path d="M149.971 169.514L143.879 182.867H138.348L144.509 169.514H149.971Z" fill="#263B7F"/>
<path d="M113.607 249.397L108.495 260.579L101.89 261.513L107.515 249.397H113.607Z" fill="#263B7F"/>
<path d="M185.751 75.4605C185.751 75.9274 185.541 76.3009 185.284 76.3009C185.028 76.3009 184.818 75.9274 184.818 75.4605C184.818 74.9936 185.028 74.6201 185.284 74.6201C185.541 74.6201 185.751 74.8769 185.751 75.4605Z" fill="#993E3A"/>
<path d="M184.654 90.1205C184.654 90.5874 184.421 90.9609 184.164 90.9609C183.907 90.9609 183.697 90.5874 183.697 90.1205C183.697 89.6537 183.907 89.2802 184.164 89.2802C184.421 89.2802 184.654 89.6537 184.654 90.1205Z" fill="#993E3A"/>
<path d="M187.618 103.217C187.618 103.66 187.502 104.08 187.245 104.104C186.988 104.127 186.731 103.8 186.685 103.333C186.638 102.866 186.685 102.47 187.035 102.446C187.385 102.423 187.548 102.75 187.618 103.217Z" fill="#993E3A"/>
<path d="M191.049 115.542C191.049 115.986 191.049 116.406 190.699 116.429C190.349 116.453 190.162 116.126 190.116 115.659C190.069 115.192 190.116 114.795 190.466 114.772C190.816 114.749 190.979 115.145 191.049 115.542Z" fill="#993E3A"/>
<path d="M193.407 124.693C193.407 125.16 193.407 125.557 193.057 125.604C192.707 125.65 192.52 125.277 192.473 124.833C192.426 124.39 192.473 123.969 192.823 123.923C193.173 123.876 193.337 124.25 193.407 124.693Z" fill="#993E3A"/>
<path d="M334.591 267.932C335.21 266.435 336.248 265.148 337.581 264.228C338.914 263.307 340.485 262.791 342.104 262.742C343.723 262.694 345.322 263.114 346.708 263.953C348.094 264.792 349.208 266.014 349.915 267.472C350.623 268.929 350.894 270.56 350.696 272.168C350.498 273.777 349.84 275.293 348.8 276.536C347.761 277.778 346.384 278.694 344.836 279.172C343.288 279.65 341.635 279.671 340.076 279.231C337.853 278.457 336.027 276.833 334.999 274.715C333.971 272.597 333.824 270.158 334.591 267.932Z" fill="#5F1D16"/>
<path d="M342.13 277.107C341.655 277.105 341.184 277.035 340.73 276.896C339.98 276.673 339.288 276.29 338.7 275.774C338.112 275.259 337.642 274.622 337.322 273.908C336.523 272.248 336.382 270.347 336.925 268.586C337.256 267.16 338.039 265.88 339.159 264.937C340.278 263.995 341.673 263.44 343.134 263.357C343.606 263.362 344.077 263.424 344.534 263.544C345.283 263.767 345.976 264.15 346.564 264.666C347.152 265.181 347.622 265.818 347.942 266.532C348.729 268.195 348.87 270.092 348.338 271.854C348.005 273.281 347.221 274.562 346.103 275.508C344.985 276.454 343.592 277.015 342.13 277.107Z" fill="#9FD8D4"/>
<g style="mix-blend-mode:multiply" opacity="0.5">
<path d="M334.195 216.529C334.195 216.782 334.094 217.026 333.914 217.205C333.735 217.385 333.491 217.486 333.238 217.486H303.339C303.085 217.486 302.842 217.385 302.662 217.205C302.483 217.026 302.382 216.782 302.382 216.529C302.382 216.404 302.407 216.281 302.455 216.166C302.504 216.051 302.574 215.947 302.664 215.86C302.753 215.773 302.858 215.705 302.974 215.659C303.09 215.614 303.214 215.592 303.339 215.595H333.238C333.362 215.592 333.486 215.614 333.602 215.659C333.718 215.705 333.824 215.773 333.913 215.86C334.002 215.947 334.073 216.051 334.121 216.166C334.17 216.281 334.195 216.404 334.195 216.529Z" fill="#CE615A"/>
</g>
<path d="M334.194 216.879H330.437L329.363 210.062C329.363 210.062 314.425 207.915 306.606 210.739L306.326 216.879H302.288L302.755 210.226L302.965 206.958C302.965 206.958 323.295 204.413 333.307 206.958L333.517 209.292L334.194 216.879Z" fill="#9B3C36"/>
<path d="M334.194 216.879H330.437L329.363 210.062C329.363 210.062 314.425 207.915 306.606 210.739L306.326 216.879H302.288L302.755 210.226C307.742 208.502 313.003 207.711 318.276 207.891C323.384 208.037 328.472 208.583 333.494 209.525L334.194 216.879Z" fill="#872D2B"/>
<path d="M70.9178 180.509L71.1746 181.909C71.1746 181.466 71.0111 181.022 70.9411 180.555L70.9178 180.509Z" fill="#A89E9E"/>
<path d="M279.532 201.752C279.936 201.78 280.341 201.78 280.745 201.752H279.532Z" fill="#A89E9E"/>
<path d="M284.223 180.275C284.509 179.264 284.884 178.279 285.343 177.334C284.504 178.606 283.866 179.999 283.453 181.466H283.943C284.012 181.064 284.106 180.666 284.223 180.275Z" fill="#A89E9E"/>
<path d="M311.601 173.739C312.477 175.381 313.256 177.072 313.935 178.805C313.444 176.998 312.655 175.286 311.601 173.739Z" fill="#B9B0B0"/>
<path d="M297.527 227.034L306.886 228.107L302.989 266.905L297.527 264.454V227.034Z" fill="#FFC10D"/>
</svg>
