<svg width="60" height="60" viewBox="0 0 60 60" fill="none" xmlns="http://www.w3.org/2000/svg">
<g clip-path="url(#clip0_1_2511)">
<path d="M22 38.6189L25.0476 21.4761H29.8095L26.8571 38.6189H22Z" fill="#3C58BF"/>
<path d="M22 38.6189L25.9048 21.4761H29.8095L26.8571 38.6189H22Z" fill="#293688"/>
<path d="M44.0954 21.6667C43.143 21.2857 41.6192 20.9048 39.7144 20.9048C34.9525 20.9048 31.5239 23.2857 31.5239 26.7143C31.5239 29.2857 33.9049 30.6191 35.8096 31.4762C37.7144 32.3334 38.2858 32.9048 38.2858 33.6667C38.2858 34.8095 36.762 35.381 35.4287 35.381C33.5239 35.381 32.4763 35.0953 30.8573 34.4286L30.1906 34.1429L29.5239 38.0476C30.6668 38.5238 32.762 39 34.9525 39C40.0001 39 43.3334 36.6191 43.3334 33C43.3334 31 42.0954 29.4762 39.2382 28.2381C37.5239 27.381 36.4763 26.9048 36.4763 26.0476C36.4763 25.2857 37.3335 24.5238 39.2382 24.5238C40.8573 24.5238 42.0001 24.8095 42.8573 25.1905L43.3334 25.381L44.0954 21.6667Z" fill="#3C58BF"/>
<path d="M44.0954 21.6667C43.143 21.2857 41.6192 20.9048 39.7144 20.9048C34.9525 20.9048 32.3811 23.2857 32.3811 26.7143C32.3811 29.2857 33.9049 30.6191 35.8096 31.4762C37.7144 32.3334 38.2858 32.9048 38.2858 33.6667C38.2858 34.8095 36.762 35.381 35.4287 35.381C33.5239 35.381 32.4763 35.0953 30.8573 34.4286L30.1906 34.1429L29.5239 38.0476C30.6668 38.5238 32.762 39 34.9525 39C40.0001 39 43.3334 36.6191 43.3334 33C43.3334 31 42.0954 29.4762 39.2382 28.2381C37.5239 27.381 36.4763 26.9048 36.4763 26.0476C36.4763 25.2857 37.3335 24.5238 39.2382 24.5238C40.8573 24.5238 42.0001 24.8095 42.8573 25.1905L43.3334 25.381L44.0954 21.6667Z" fill="#293688"/>
<path d="M52.2856 21.4761C51.1427 21.4761 50.2856 21.5713 49.8094 22.7142L42.6665 38.6189H47.8094L48.7617 35.7618H54.857L55.4284 38.6189H59.9998L55.9998 21.4761H52.2856ZM50.0951 32.9046C50.3808 32.0475 51.9998 27.857 51.9998 27.857C51.9998 27.857 52.3808 26.8094 52.6665 26.1427L52.9522 27.7618C52.9522 27.7618 53.9046 32.0475 54.0951 32.9999H50.0951V32.9046Z" fill="#3C58BF"/>
<path d="M53.4284 21.4761C52.2856 21.4761 51.4284 21.5713 50.9522 22.7142L42.6665 38.6189H47.8094L48.7617 35.7618H54.857L55.4284 38.6189H59.9998L55.9998 21.4761H53.4284ZM50.0951 32.9046C50.476 31.9523 51.9998 27.857 51.9998 27.857C51.9998 27.857 52.3808 26.8094 52.6665 26.1427L52.9522 27.7618C52.9522 27.7618 53.9046 32.0475 54.0951 32.9999H50.0951V32.9046Z" fill="#293688"/>
<path d="M13.2381 33.4761L12.7619 30.9999C11.9047 28.1427 9.14283 24.9999 6.09521 23.4761L10.3809 38.7141H15.5238L23.2381 21.5713H18.0952L13.2381 33.4761Z" fill="#3C58BF"/>
<path d="M13.2381 33.4761L12.7619 30.9999C11.9047 28.1427 9.14283 24.9999 6.09521 23.4761L10.3809 38.7141H15.5238L23.2381 21.5713H19.0476L13.2381 33.4761Z" fill="#293688"/>
<path d="M0 21.4761L0.857143 21.6666C6.95238 23.0951 11.1429 26.7142 12.7619 30.9999L11.0476 22.9046C10.7619 21.7618 9.90476 21.4761 8.85714 21.4761H0Z" fill="#FFBC00"/>
<path d="M0 21.4761C6.09524 22.9046 11.1429 26.6189 12.7619 30.9046L11.1429 24.1427C10.8571 22.9999 9.90476 22.3332 8.85714 22.3332L0 21.4761Z" fill="#F7981D"/>
<path d="M0 21.4761C6.09524 22.9046 11.1429 26.6189 12.7619 30.9046L11.619 27.1904C11.3333 26.0475 10.9524 24.9046 9.61905 24.4285L0 21.4761Z" fill="#ED7C00"/>
<path d="M18 32.9047L14.7619 29.6666L13.238 33.2856L12.8571 30.9047C12 28.0475 9.23805 24.9047 6.19043 23.3809L10.4761 38.619H15.619L18 32.9047Z" fill="#051244"/>
<path d="M26.8571 38.6192L22.7619 34.4287L22 38.6192H26.8571Z" fill="#051244"/>
<path d="M37.8096 32.7144C38.1906 33.0953 38.3811 33.381 38.2858 33.762C38.2858 34.9048 36.762 35.4763 35.4287 35.4763C33.5239 35.4763 32.4763 35.1905 30.8573 34.5239L30.1906 34.2382L29.5239 38.1429C30.6668 38.6191 32.762 39.0953 34.9525 39.0953C38.0001 39.0953 40.4763 38.2382 41.9049 36.7144L37.8096 32.7144Z" fill="#051244"/>
<path d="M43.3335 38.6188H47.8097L48.7621 35.7616H54.8573L55.4287 38.6188H60.0002L58.3811 31.6664L52.6668 26.1426L52.9525 27.6664C52.9525 27.6664 53.9049 31.9521 54.0954 32.9045H50.0954C50.4764 31.9521 52.0002 27.8569 52.0002 27.8569C52.0002 27.8569 52.3811 26.8092 52.6668 26.1426" fill="#051244"/>
</g>
<defs>
<clipPath id="clip0_1_2511">
<rect width="60" height="60" fill="white"/>
</clipPath>
</defs>
</svg>
